<svg width="52" height="53" viewBox="0 0 52 53" fill="none" xmlns="http://www.w3.org/2000/svg">
<g filter="url(#filter0_d_22_4384)">
<path d="M23.7439 8.60938C23.4019 8.51937 23.039 8.55312 22.7195 8.70467L10.6077 14.4484C10.136 14.6721 9.81454 15.1249 9.75893 15.6439L8.53946 27.0256C8.50387 27.3578 8.5802 27.6924 8.75635 27.9763L16.3429 40.203C16.5727 40.5733 16.952 40.8253 17.3824 40.8936L34.4259 43.5991C35.0239 43.694 35.6204 43.42 35.9381 42.9045L43.2253 31.0783C43.4189 30.7641 43.4898 30.3896 43.4246 30.0264L40.5348 13.9256C40.4316 13.351 40.0046 12.8885 39.4401 12.7399L23.7439 8.60938Z" fill="#BE8F70" stroke="black"/>
<path d="M23.9011 15.1547C24.1132 15.0548 24.3537 15.0325 24.5805 15.0918L34.3959 17.659C34.7725 17.7575 35.0577 18.0656 35.1269 18.4487L36.9317 28.4424C36.9757 28.6858 36.9279 28.9369 36.7975 29.1471L32.2787 36.4357C32.0666 36.7776 31.6703 36.9592 31.2729 36.8965L20.633 35.2179C20.3467 35.1728 20.0941 35.0056 19.9406 34.7597L15.183 27.1393C15.0644 26.9494 15.013 26.7252 15.037 26.5025L15.7912 19.5068C15.8286 19.1602 16.0438 18.858 16.3591 18.7094L23.9011 15.1547Z" fill="#EBB089"/>
<path d="M32.6091 24.5477L34.9504 27.8685L32.6033 28.3357L29.5667 27.3178L30.3358 24.0295L32.6091 24.5477Z" fill="#BE8F70"/>
<path d="M21.5902 30.0522L24.5316 30.5228L23.5756 31.9938L21.5902 32.3797L19.5261 30.5228L21.5902 30.0522Z" fill="#BE8F70"/>
<path d="M24.1674 19.1549L26.5435 18.6707L26.588 20.8908L25.0753 21.7793L23.1268 21.2369L22.1106 18.6531L24.1674 19.1549Z" fill="#BE8F70"/>
</g>
<defs>
<filter id="filter0_d_22_4384" x="0.0310059" y="0.0599976" width="51.9172" height="52.0577" filterUnits="userSpaceOnUse" color-interpolation-filters="sRGB">
<feFlood flood-opacity="0" result="BackgroundImageFix"/>
<feColorMatrix in="SourceAlpha" type="matrix" values="0 0 0 0 0 0 0 0 0 0 0 0 0 0 0 0 0 0 127 0" result="hardAlpha"/>
<feOffset/>
<feGaussianBlur stdDeviation="4"/>
<feComposite in2="hardAlpha" operator="out"/>
<feColorMatrix type="matrix" values="0 0 0 0 0.6 0 0 0 0 0.439216 0 0 0 0 0.333333 0 0 0 1 0"/>
<feBlend mode="normal" in2="BackgroundImageFix" result="effect1_dropShadow_22_4384"/>
<feBlend mode="normal" in="SourceGraphic" in2="effect1_dropShadow_22_4384" result="shape"/>
</filter>
</defs>
</svg>
