<svg width="66" height="66" viewBox="0 0 66 66" fill="none" xmlns="http://www.w3.org/2000/svg">
<rect x="1.5" y="1.5" width="63" height="63" rx="22.5" fill="#BBD6FF" stroke="#0A0A0A" stroke-width="3"/>
<rect x="5" y="5" width="56" height="56" rx="19" fill="#BBD6FF" stroke="#9FC3FA" stroke-width="4"/>
<path d="M31.5342 19.7874C29.193 20.028 26.937 20.8292 24.9656 22.1324C22.5758 23.7121 20.7106 25.9592 19.6086 28.5913C18.5064 31.2236 18.2178 34.1211 18.7799 36.9166C19.3419 39.712 20.7289 42.2775 22.7627 44.2896C24.7964 46.3015 27.3855 47.6698 30.2017 48.224C33.0179 48.7782 35.9372 48.4939 38.591 47.4064C41.2449 46.3189 43.5158 44.4762 45.1148 42.1087C45.3273 41.7942 45.5173 41.5249 45.7086 41.2538C45.8455 41.0599 45.983 40.8651 46.1298 40.6521C46.4491 40.1889 46.7743 39.6924 47.0218 39.1867C47.2703 38.679 47.4828 38.0791 47.499 37.4115C47.516 36.7104 47.3139 36.0433 46.9021 35.4323C46.2764 34.5037 45.3261 34.1663 44.5167 34.1192C43.7393 34.0739 42.9879 34.2788 42.4241 34.5576L42.3409 34.5988L42.2633 34.65C41.4199 35.2062 40.9546 35.891 40.5919 36.531C40.4668 36.7517 40.3606 36.9516 40.2577 37.1451C40.0462 37.543 39.8491 37.9138 39.5323 38.3828C38.676 39.6506 37.4573 40.6411 36.0283 41.2267C34.5992 41.8123 33.0257 41.9658 31.5075 41.667C29.9894 41.3683 28.5971 40.6313 27.5059 39.5517C26.4148 38.4723 25.6736 37.0991 25.3735 35.6065C25.0734 34.114 25.2273 32.5668 25.8164 31.1599C26.4055 29.7528 27.4043 28.5475 28.6889 27.6983C29.5538 27.1266 30.5217 26.7339 31.5342 26.5383V27.5V30.4876L33.9302 28.703L40.396 23.8872L42.0336 22.6675L40.38 21.4695L33.9142 16.7853L31.5342 15.061V18V19.7874Z" fill="#FFFBFB" stroke="black" stroke-width="3"/>
<path d="M46.4998 37C45.1665 41.3333 38.1664 49.5 29.4997 46.5C16.4997 42 19.8627 28.4475 23.9997 25C26.9998 22.5 27.4998 22 33.9996 21V18" stroke="black" stroke-opacity="0.15" stroke-width="3"/>
</svg>
