<svg width="36" height="37" viewBox="0 0 36 37" fill="none" xmlns="http://www.w3.org/2000/svg">
<path d="M31.4401 4.73995L15.7439 0.60938C15.4019 0.519369 15.039 0.553119 14.7195 0.70467L2.60766 6.44841C2.136 6.67209 1.81454 7.12489 1.75893 7.64393L0.53946 19.0256C0.503867 19.3578 0.5802 19.6924 0.756352 19.9763L8.34295 32.203C8.57268 32.5733 8.95203 32.8253 9.38236 32.8936L26.4259 35.5991C27.0239 35.694 27.6204 35.42 27.9381 34.9045L35.2253 23.0783C35.4189 22.7641 35.4898 22.3896 35.4246 22.0264L32.5348 5.92556C32.4316 5.35103 32.0046 4.8885 31.4401 4.73995Z" fill="#BE8F70" stroke="#BE8F70"/>
<path d="M15.9011 7.15472C16.1132 7.05476 16.3537 7.0325 16.5805 7.09183L26.3959 9.65898C26.7725 9.75749 27.0577 10.0656 27.1269 10.4487L28.9317 20.4424C28.9757 20.6858 28.9279 20.9369 28.7975 21.1471L24.2787 28.4357C24.0666 28.7776 23.6703 28.9592 23.2729 28.8965L12.633 27.2179C12.3467 27.1728 12.0941 27.0056 11.9406 26.7597L7.18303 19.1393C7.06445 18.9494 7.01304 18.7252 7.03704 18.5025L7.79121 11.5068C7.82858 11.1602 8.04376 10.858 8.35911 10.7094L15.9011 7.15472Z" fill="#EBB089"/>
<path d="M24.6091 16.5477L26.9504 19.8685L24.6033 20.3356L21.5667 19.3178L22.3358 16.0295L24.6091 16.5477Z" fill="#BE8F70"/>
<path d="M13.59 22.0521L16.5313 22.5227L15.5754 23.9938L13.59 24.3797L11.5259 22.5227L13.59 22.0521Z" fill="#BE8F70"/>
<path d="M16.1671 11.1549L18.5432 10.6707L18.5878 12.8908L17.075 13.7793L15.1266 13.2369L14.1104 10.6531L16.1671 11.1549Z" fill="#BE8F70"/>
<path opacity="0.88" d="M31.4401 4.73995L15.7439 0.60938C15.4019 0.519369 15.039 0.553119 14.7195 0.70467L2.60766 6.44841C2.136 6.67209 1.81454 7.12489 1.75893 7.64393L0.53946 19.0256C0.503867 19.3578 0.5802 19.6924 0.756352 19.9763L8.34295 32.203C8.57268 32.5733 8.95203 32.8253 9.38236 32.8936L26.4259 35.5991C27.0239 35.694 27.6204 35.42 27.9381 34.9045L35.2253 23.0783C35.4189 22.7641 35.4898 22.3896 35.4246 22.0264L32.5348 5.92556C32.4316 5.35103 32.0046 4.8885 31.4401 4.73995Z" fill="#FFFDE9" stroke="#FFFDE9"/>
</svg>
