<svg width="132" height="164" viewBox="0 0 132 164" fill="none" xmlns="http://www.w3.org/2000/svg">
<path d="M107.427 16.3188L107.49 18.7544L109.926 18.7544L112.993 18.7544L113.938 18.7544L114.647 18.1294C115.596 17.2924 116.777 15.7767 117.138 13.8207C117.539 11.6482 116.85 9.32272 114.647 7.37941L113.938 6.7544L112.993 6.7544L109.746 6.7544L107.181 6.7544L107.247 9.3188L107.427 16.3188Z" fill="white" stroke="white" stroke-width="5"/>
<path d="M108.427 17.3045L108.476 19.7544L110.926 19.7544L113.993 19.7544L115.122 19.7544L115.868 18.908C116.797 17.8549 117.843 16.0675 118.154 13.8972C118.482 11.6169 117.977 8.99227 115.868 6.60082L115.122 5.75439L113.993 5.75439L110.746 5.75439L108.195 5.75439L108.247 8.30449L108.427 17.3045Z" fill="white" stroke="white" stroke-width="5"/>
<path d="M107.427 155.319L107.49 157.754L109.926 157.754L112.993 157.754L113.938 157.754L114.647 157.129C115.596 156.292 116.777 154.777 117.138 152.821C117.539 150.648 116.85 148.323 114.647 146.379L113.938 145.754L112.993 145.754L109.746 145.754L107.181 145.754L107.247 148.319L107.427 155.319Z" fill="white" stroke="white" stroke-width="5"/>
<path d="M108.427 156.304L108.476 158.754L110.926 158.754L113.993 158.754L115.122 158.754L115.868 157.908C116.797 156.855 117.843 155.067 118.154 152.897C118.482 150.617 117.977 147.992 115.868 145.601L115.122 144.754L113.993 144.754L110.746 144.754L108.195 144.754L108.247 147.304L108.427 156.304Z" fill="white" stroke="white" stroke-width="5"/>
<path d="M32.4365 71.5077L32.3773 69.0684L29.9372 69.0684L20.9176 69.0684L19.9299 69.0684L19.2089 69.7434C16.9766 71.8333 14.2905 75.5735 13.4937 80.1558C12.6648 84.923 13.9405 90.3171 19.2089 95.2496L19.9299 95.9246L20.9176 95.9246L30.4678 95.9246L33.0292 95.9246L32.967 93.3639L32.4365 71.5077Z" fill="white" stroke="white" stroke-width="5"/>
<path d="M27.2838 71.5684L36.3034 71.5684L36.834 93.4246L27.2838 93.4246C17.9458 84.6821 23.3929 75.2111 27.2838 71.5684Z" fill="white"/>
<path d="M103.269 143.045L103.203 143.044L103.202 143.044L103.203 143.044C102.367 143.027 101.586 143.047 100.957 143.063L100.94 143.064C100.547 143.074 100.234 143.082 99.9716 143.082C99.6398 143.082 97.9893 143.122 95.6569 143.18L95.4572 143.185C91.0266 143.294 84.0706 143.465 77.9902 143.573C76.6163 143.185 74.5655 142.29 72.7633 140.807C70.8567 139.239 69.3573 137.13 69.0284 134.359C68.7089 131.667 69.9921 128.233 72.1911 124.732C74.3045 121.368 76.9829 118.384 78.7989 116.672L115.708 86.9836L123.847 86.9836C124.002 86.9836 124.156 86.9693 124.307 86.9409C125.276 86.7596 127.132 86.069 128.209 84.3299C128.696 83.8738 129 83.2252 129 82.5056C129 82.3367 128.993 82.1696 128.978 82.0044C128.993 81.8392 129 81.6721 129 81.5032C129 80.7836 128.696 80.135 128.209 79.6788C127.132 77.9398 125.276 77.2492 124.307 77.0679C124.156 77.0395 124.002 77.0252 123.847 77.0252L115.708 77.0252L78.7989 47.3366C76.9829 45.625 74.3045 42.6409 72.1911 39.2764C69.9921 35.7758 68.7089 32.3419 69.0284 29.6499C69.3573 26.8787 70.8567 24.77 72.7633 23.2016C74.5656 21.719 76.6164 20.8237 77.9902 20.4361C84.0707 20.5434 91.0268 20.7148 95.4574 20.824L95.6614 20.8291C97.9914 20.8865 99.64 20.9271 99.9716 20.9271C100.234 20.9271 100.547 20.9349 100.94 20.945L100.957 20.9454C101.586 20.9614 102.367 20.9813 103.203 20.9651L103.203 20.9651L103.269 20.9639L103.307 20.9633C104.07 20.9501 106.576 20.9066 108.957 19.884C110.201 19.3497 111.521 18.5036 112.53 17.1569C113.561 15.7812 114.144 14.0458 114.144 11.9692C114.144 9.89441 113.518 8.17452 112.421 6.84062C111.356 5.54648 109.985 4.77841 108.733 4.31644C106.323 3.42715 103.841 3.491 103.228 3.50675L103.202 3.50741L103.147 3.50876C103.146 3.50879 103.145 3.50881 103.144 3.50882L54.3428 3.50882C52.6948 3.50882 51.3079 3.92406 50.6301 4.24135C50.5076 4.29869 50.3899 4.36587 50.2783 4.44224C47.9734 6.0192 44.4357 8.45968 41.3114 10.6576C39.7503 11.7558 38.2841 12.7993 37.1238 13.6466C36.0267 14.4478 35.0496 15.1829 34.5949 15.6087C34.2903 15.8939 33.8874 16.1084 33.4545 16.2505C33.0085 16.3969 32.6613 16.4239 32.5895 16.4239C32.412 16.4239 32.235 16.4428 32.0616 16.4802L4.47205 22.441C3.29189 22.696 2.46259 23.758 2.50128 24.9647C2.53996 26.1715 3.43558 27.1782 4.62964 27.3571C10.9041 28.297 20.1336 31.5228 27.7548 36.2596C31.5549 38.6215 34.8437 41.291 37.1581 44.1353C39.1481 46.581 40.3369 49.0513 40.6296 51.5091C37.8631 53.6851 34.1988 57.234 31.0901 61.8816C27.5423 67.1858 24.6363 74.0485 24.77 82.0044C24.6363 89.9603 27.5423 96.823 31.0901 102.127C34.1988 106.775 37.863 110.324 40.6296 112.5C40.3369 114.958 39.1481 117.428 37.1581 119.873C34.8437 122.718 31.5549 125.387 27.7548 127.749C20.1336 132.486 10.9041 135.712 4.62963 136.652C3.43557 136.831 2.53996 137.837 2.50128 139.044C2.46259 140.251 3.29189 141.313 4.47204 141.568L32.0616 147.529C32.235 147.566 32.412 147.585 32.5895 147.585C32.6613 147.585 33.0085 147.612 33.4545 147.758C33.8874 147.9 34.2902 148.115 34.5949 148.4C35.0496 148.826 36.0267 149.561 37.1238 150.362C38.2841 151.209 39.7503 152.253 41.3114 153.351C44.4357 155.549 47.9734 157.99 50.2783 159.567C50.3899 159.643 50.5075 159.71 50.63 159.767C51.3079 160.085 52.6948 160.5 54.3428 160.5L103.155 160.5L103.143 160.5L103.147 160.5L103.203 160.501L103.228 160.502C103.841 160.518 106.323 160.582 108.733 159.692C109.985 159.23 111.356 158.462 112.421 157.168C113.518 155.834 114.144 154.114 114.144 152.04C114.144 149.963 113.561 148.228 112.53 146.852C111.521 145.505 110.201 144.659 108.957 144.125C106.576 143.102 104.071 143.059 103.307 143.045L103.269 143.045L103.269 143.045Z" fill="white" stroke="white" stroke-width="5" stroke-linejoin="round"/>
<path d="M104.886 83.5438L106.787 81.7197L104.866 79.917L76.4073 53.2126L75.8121 52.6541L75.002 52.5544C68.1426 51.7102 57.7784 52.0631 49.0065 56.0357C44.5858 58.0377 40.4938 60.9951 37.5103 65.2541C34.5139 69.5316 32.7426 74.9709 32.7426 81.7401C32.7426 88.5095 34.5139 93.9688 37.5031 98.282C40.4794 102.577 44.5625 105.591 48.9777 107.659C57.7411 111.762 68.1016 112.276 74.9643 111.537L75.8123 111.445L76.4277 110.855L104.886 83.5438Z" fill="white" stroke="white" stroke-width="5"/>
<path d="M95.3367 83.628L97.2339 81.805L95.3163 80.0034L76.1957 62.0386L75.6003 61.4792L74.7896 61.3793C70.0875 60.7999 62.9591 61.0336 56.8838 63.7885C53.8113 65.1817 50.9331 67.2556 48.8266 70.2666C46.7072 73.2959 45.4757 77.1226 45.4757 81.8253C45.4757 86.5284 46.7072 90.3668 48.8194 93.4184C50.9188 96.4515 53.788 98.564 56.855 100.002C62.9218 102.846 70.0463 103.191 74.7519 102.684L75.6005 102.592L76.216 102.001L95.3367 83.628Z" fill="white" stroke="white" stroke-width="5"/>
<path d="M76.3149 83.7239L78.2806 81.8799L76.2943 80.0581L65.1777 69.8619L64.585 69.3182L63.7864 69.2222C60.9414 68.8799 56.5982 69.0076 52.8436 70.6696C50.9327 71.5155 49.0915 72.7971 47.7297 74.6972C46.3526 76.6188 45.5761 79.0208 45.5761 81.9005C45.5761 84.7805 46.3526 87.1868 47.7224 89.1188C49.077 91.0293 50.9094 92.3332 52.8151 93.2054C56.5616 94.9202 60.9013 95.1144 63.7495 94.8146L64.5853 94.7266L65.1982 94.1517L76.3149 83.7239Z" fill="white" stroke="white" stroke-width="5"/>
<path d="M76.3149 83.7239L78.2806 81.8799L76.2943 80.0581L65.1777 69.8619L64.585 69.3182L63.7864 69.2222C60.9414 68.8799 56.5982 69.0076 52.8436 70.6696C50.9327 71.5155 49.0915 72.7971 47.7297 74.6972C46.3526 76.6188 45.5761 79.0208 45.5761 81.9005C45.5761 84.7805 46.3526 87.1868 47.7224 89.1188C49.077 91.0293 50.9094 92.3332 52.8151 93.2054C56.5616 94.9202 60.9013 95.1144 63.7495 94.8146L64.5853 94.7266L65.1982 94.1517L76.3149 83.7239Z" stroke="white" stroke-width="5"/>
<path d="M24.078 23.4314L16.5388 25.1426L23.6524 28.1698L40.4311 35.3101L45.85 44.0732L46.5829 45.2583L47.9763 45.2583L62.3017 45.2583L65.6132 45.2583L64.706 42.0735L60.7781 28.2831L68.0949 17.3228L69.9265 14.5791L66.7897 13.5577L54.5867 9.5838L53.2571 9.15082L52.1922 10.0571L40.9876 19.5936L24.078 23.4314Z" fill="white" stroke="white" stroke-width="5"/>
<path d="M21.9653 141.116L14.2826 139.404L21.5452 136.369L39.2219 128.983L44.9358 119.91L45.6712 118.742L47.0512 118.742L62.1112 118.742L65.4395 118.742L64.5122 121.939L60.3777 136.192L68.0831 147.526L69.9647 150.293L66.777 151.312L53.9482 155.414L52.6386 155.833L51.5836 154.952L39.7788 145.086L21.9653 141.116Z" fill="white" stroke="white" stroke-width="5"/>
<path d="M29.6095 138.672L21.6309 137.343L28.9354 133.941L39.1799 129.169L42.2064 123.892L42.8812 122.716L44.2403 122.65L53.411 122.206L56.76 122.044L55.9814 125.299L54.0481 133.381L58.8021 139.477L60.9099 142.18L57.7076 143.352L50.03 146.163L48.7723 146.623L47.6862 145.828L40.3619 140.463L29.6095 138.672Z" fill="white" stroke="white" stroke-width="5"/>
<path d="M31.7326 25.3279L23.7539 26.657L31.0584 30.0593L41.3029 34.831L44.3294 40.1077L45.0043 41.2843L46.3634 41.3502L55.534 41.7942L58.8831 41.9564L58.1045 38.7015L56.1711 30.6191L60.9252 24.5227L63.0329 21.8198L59.8307 20.6475L52.153 17.8369L50.8954 17.3765L49.8093 18.1721L42.4849 23.5366L31.7326 25.3279Z" fill="white" stroke="white" stroke-width="5"/>
<path d="M29.6095 138.672L21.6309 137.343L28.9354 133.941L39.1799 129.169L42.2064 123.892L42.8812 122.716L44.2403 122.65L53.411 122.206L56.76 122.044L55.9814 125.299L54.0481 133.381L58.8021 139.477L60.9099 142.18L57.7076 143.352L50.03 146.163L48.7723 146.623L47.6862 145.828L40.3619 140.463L29.6095 138.672Z" stroke="white" stroke-width="5"/>
<path d="M31.7326 25.3279L23.7539 26.657L31.0584 30.0593L41.3029 34.831L44.3294 40.1077L45.0043 41.2843L46.3634 41.3502L55.534 41.7942L58.8831 41.9564L58.1045 38.7015L56.1711 30.6191L60.9252 24.5227L63.0329 21.8198L59.8307 20.6475L52.153 17.8369L50.8954 17.3765L49.8093 18.1721L42.4849 23.5366L31.7326 25.3279Z" stroke="white" stroke-width="5"/>
<path d="M103.269 143.045L103.203 143.044L103.202 143.044L103.203 143.044C102.367 143.027 101.586 143.047 100.957 143.063L100.94 143.064C100.547 143.074 100.234 143.082 99.9716 143.082C99.6398 143.082 97.9893 143.122 95.6569 143.18L95.4572 143.185C91.0266 143.294 84.0706 143.465 77.9902 143.573C76.6163 143.185 74.5655 142.29 72.7633 140.807C70.8567 139.239 69.3573 137.13 69.0284 134.359C68.7089 131.667 69.9921 128.233 72.1911 124.732C74.3045 121.368 76.9829 118.384 78.7989 116.672L115.708 86.9836L123.847 86.9836C124.002 86.9836 124.156 86.9693 124.307 86.9409C125.276 86.7596 127.132 86.069 128.209 84.3299C128.696 83.8738 129 83.2252 129 82.5056C129 82.3367 128.993 82.1696 128.978 82.0044C128.993 81.8392 129 81.6721 129 81.5032C129 80.7836 128.696 80.135 128.209 79.6788C127.132 77.9398 125.276 77.2492 124.307 77.0679C124.156 77.0395 124.002 77.0252 123.847 77.0252L115.708 77.0252L78.7989 47.3366C76.9829 45.625 74.3045 42.6409 72.1911 39.2764C69.9921 35.7758 68.7089 32.3419 69.0284 29.6499C69.3573 26.8787 70.8567 24.77 72.7633 23.2016C74.5656 21.719 76.6164 20.8237 77.9902 20.4361C84.0707 20.5434 91.0268 20.7148 95.4574 20.824L95.6614 20.8291C97.9914 20.8865 99.64 20.9271 99.9716 20.9271C100.234 20.9271 100.547 20.9349 100.94 20.945L100.957 20.9454C101.586 20.9614 102.367 20.9813 103.203 20.9651L103.203 20.9651L103.269 20.9639L103.307 20.9633C104.07 20.9501 106.576 20.9066 108.957 19.884C110.201 19.3497 111.521 18.5036 112.53 17.1569C113.561 15.7812 114.144 14.0458 114.144 11.9692C114.144 9.89441 113.518 8.17452 112.421 6.84062C111.356 5.54648 109.985 4.77841 108.733 4.31644C106.323 3.42715 103.841 3.491 103.228 3.50675L103.202 3.50741L103.147 3.50876C103.146 3.50879 103.145 3.50881 103.144 3.50882L54.3428 3.50882C52.6948 3.50882 51.3079 3.92406 50.6301 4.24135C50.5076 4.29869 50.3899 4.36587 50.2783 4.44224C47.9734 6.0192 44.4357 8.45968 41.3114 10.6576C39.7503 11.7558 38.2841 12.7993 37.1238 13.6466C36.0267 14.4478 35.0496 15.1829 34.5949 15.6087C34.2903 15.8939 33.8874 16.1084 33.4545 16.2505C33.0085 16.3969 32.6613 16.4239 32.5895 16.4239C32.412 16.4239 32.235 16.4428 32.0616 16.4802L4.47205 22.441C3.29189 22.696 2.46259 23.758 2.50128 24.9647C2.53996 26.1715 3.43558 27.1782 4.62964 27.3571C10.9041 28.297 20.1336 31.5228 27.7548 36.2596C31.5549 38.6215 34.8437 41.291 37.1581 44.1353C39.1481 46.581 40.3369 49.0513 40.6296 51.5091C37.8631 53.6851 34.1988 57.234 31.0901 61.8816C27.5423 67.1858 24.6363 74.0485 24.77 82.0044C24.6363 89.9603 27.5423 96.823 31.0901 102.127C34.1988 106.775 37.863 110.324 40.6296 112.5C40.3369 114.958 39.1481 117.428 37.1581 119.873C34.8437 122.718 31.5549 125.387 27.7548 127.749C20.1336 132.486 10.9041 135.712 4.62963 136.652C3.43557 136.831 2.53996 137.837 2.50128 139.044C2.46259 140.251 3.29189 141.313 4.47204 141.568L32.0616 147.529C32.235 147.566 32.412 147.585 32.5895 147.585C32.6613 147.585 33.0085 147.612 33.4545 147.758C33.8874 147.9 34.2902 148.115 34.5949 148.4C35.0496 148.826 36.0267 149.561 37.1238 150.362C38.2841 151.209 39.7503 152.253 41.3114 153.351C44.4357 155.549 47.9734 157.99 50.2783 159.567C50.3899 159.643 50.5075 159.71 50.63 159.767C51.3079 160.085 52.6948 160.5 54.3428 160.5L103.155 160.5L103.143 160.5L103.147 160.5L103.203 160.501L103.228 160.502C103.841 160.518 106.323 160.582 108.733 159.692C109.985 159.23 111.356 158.462 112.421 157.168C113.518 155.834 114.144 154.114 114.144 152.04C114.144 149.963 113.561 148.228 112.53 146.852C111.521 145.505 110.201 144.659 108.957 144.125C106.576 143.102 104.071 143.059 103.307 143.045L103.269 143.045L103.269 143.045Z" stroke="white" stroke-width="5" stroke-linejoin="round"/>
</svg>
