<svg width="18" height="21" viewBox="0 0 18 21" fill="none" xmlns="http://www.w3.org/2000/svg">
<g id="Bullet yellow" filter="url(#filter0_d_27_44)">
<path id="Rectangle 11" d="M4 9C4 6.23858 6.23858 4 9 4C11.7614 4 14 6.23858 14 9V12C14 14.7614 11.7614 17 9 17C6.23858 17 4 14.7614 4 12V9Z" fill="#78C2EB"/>
<path id="Rectangle 13" d="M5.25 8.93164C5.25 6.86057 6.92893 5.18164 9 5.18164C11.0711 5.18164 12.75 6.86057 12.75 8.93164V12.068C12.75 14.1391 11.0711 15.818 9 15.818C6.92893 15.818 5.25 14.1391 5.25 12.068V8.93164Z" fill="#8BCDF1"/>
</g>
<defs>
<filter id="filter0_d_27_44" x="0" y="0" width="18" height="21" filterUnits="userSpaceOnUse" color-interpolation-filters="sRGB">
<feFlood flood-opacity="0" result="BackgroundImageFix"/>
<feColorMatrix in="SourceAlpha" type="matrix" values="0 0 0 0 0 0 0 0 0 0 0 0 0 0 0 0 0 0 127 0" result="hardAlpha"/>
<feOffset/>
<feGaussianBlur stdDeviation="2"/>
<feComposite in2="hardAlpha" operator="out"/>
<feColorMatrix type="matrix" values="0 0 0 0 0.545098 0 0 0 0 0.803922 0 0 0 0 0.945098 0 0 0 1 0"/>
<feBlend mode="normal" in2="BackgroundImageFix" result="effect1_dropShadow_27_44"/>
<feBlend mode="normal" in="SourceGraphic" in2="effect1_dropShadow_27_44" result="shape"/>
</filter>
</defs>
</svg>
