<svg width="50" height="50" viewBox="0 0 50 50" fill="none" xmlns="http://www.w3.org/2000/svg">
<circle cx="25" cy="25" r="23.5" fill="#FFBBBB" stroke="black" stroke-width="3"/>
<circle cx="25" cy="25" r="20.5" stroke="#FA9F9F" stroke-width="3"/>
<path d="M10 21.5885C10 21.159 10.3568 20.8109 10.7969 20.8109H16.455C16.6315 20.8109 16.803 20.7537 16.9426 20.6483L20.3591 18.0692L24.6638 14.2067C25.1746 13.7484 26 14.102 26 14.7792V36.2208C26 36.8822 25.2078 37.2417 24.6896 36.8155L20.3591 33.2536L16.9489 30.4813C16.8057 30.3649 16.6252 30.3011 16.4388 30.3011H10.7969C10.3568 30.3011 10 29.9529 10 29.5234V21.5885Z" fill="#767676"/>
<path fill-rule="evenodd" clip-rule="evenodd" d="M20.8709 32.6575L25.2031 36.2208V14.7792L20.8735 18.6641L17.4302 21.2634C17.151 21.4742 16.808 21.5885 16.455 21.5885H10.7969L10.7969 29.5234H16.4388C16.8116 29.5234 17.1725 29.6509 17.4589 29.8838L20.8709 32.6575ZM20.3591 33.2536L24.6896 36.8155C25.2078 37.2417 26 36.8822 26 36.2208V14.7792C26 14.102 25.1746 13.7484 24.6638 14.2067L20.3591 18.0692L16.9426 20.6483C16.803 20.7537 16.6315 20.8109 16.455 20.8109H10.7969C10.3568 20.8109 10 21.159 10 21.5885V29.5234C10 29.9529 10.3568 30.3011 10.7969 30.3011H16.4388C16.6252 30.3011 16.8057 30.3649 16.9489 30.4813L20.3591 33.2536Z" fill="black"/>
<path d="M27.5 13.458C30.6826 13.458 33.999 15.1616 36.2494 17.2245C38.4999 19.2874 39.7642 22.0853 39.7642 25.0027C39.7642 27.92 38.4999 30.7179 36.2494 32.7808C33.999 34.8437 30.9468 36.5 27.7642 36.5V34C30.2113 34 32.5582 32.5695 34.2886 30.9834C36.0189 29.3972 36.9911 27.2459 36.9911 25.0027C36.9911 22.7595 36.0189 20.6081 34.2886 19.0219C32.5582 17.4358 29.9471 16 27.5 16V13.458Z" fill="#767676"/>
<path fill-rule="evenodd" clip-rule="evenodd" d="M27 13H27.4063C30.7405 13 33.9417 14.26 36.3048 16.5083C38.6685 18.7572 40 21.8113 40 25C40 28.1887 38.6685 31.2428 36.3048 33.4917C33.9417 35.74 30.7405 37 27.4063 37H27L27 33.5114H27.4063C29.7897 33.5114 32.072 32.6104 33.7519 31.012C35.4313 29.4143 36.3711 27.2513 36.3711 25C36.3711 22.7487 35.4313 20.5857 33.7519 18.988C32.072 17.3896 29.7897 16.4886 27.4063 16.4886H27V13ZM27.8125 13.8156V15.6877C30.2525 15.7843 32.5746 16.7489 34.3133 18.4031C36.1488 20.1494 37.1836 22.522 37.1836 25C37.1836 27.478 36.1488 29.8506 34.3133 31.5969C32.5746 33.2511 30.2525 34.2157 27.8125 34.3123L27.8125 36.1844C30.7951 36.0867 33.631 34.9166 35.7435 32.9068C37.951 30.8065 39.1875 27.9619 39.1875 25C39.1875 22.038 37.951 19.1935 35.7435 17.0932C33.631 15.0834 30.7951 13.9133 27.8125 13.8156Z" fill="black"/>
<path d="M27 17C29.1217 17 31.1566 17.8429 32.6569 19.3431C34.1571 20.8434 35 22.8783 35 25C35 27.1217 34.1571 29.1566 32.6569 30.6569C31.1566 32.1571 29.1217 33 27 33L27 30.2201C28.3844 30.2201 29.7122 29.6701 30.6911 28.6911C31.6701 27.7122 32.2201 26.3844 32.2201 25C32.2201 23.6156 31.6701 22.2878 30.6911 21.3089C29.7122 20.3299 28.3844 19.7799 27 19.7799V17Z" fill="#767676"/>
<path fill-rule="evenodd" clip-rule="evenodd" d="M27 17H27.4426C29.7122 17 31.8888 17.8429 33.4936 19.3431C35.0984 20.8434 36 22.8783 36 25C36 27.1217 35.0984 29.1566 33.4936 30.6569C31.8888 32.1571 29.7122 33 27.4426 33H27L27 29.5363H27.4426C28.7295 29.5363 29.9637 29.0583 30.8737 28.2076C31.7837 27.3569 32.2949 26.2031 32.2949 25C32.2949 23.7969 31.7837 22.6431 30.8737 21.7924C29.9637 20.9417 28.7295 20.4637 27.4426 20.4637H27V17ZM27.8852 17.8395V19.6521C29.245 19.7504 30.5285 20.2993 31.4997 21.2072C32.5757 22.2131 33.1802 23.5774 33.1802 25C33.1802 26.4226 32.5757 27.7869 31.4997 28.7928C30.5285 29.7007 29.245 30.2496 27.8852 30.3479L27.8853 32.1605C29.7586 32.0593 31.5335 31.3189 32.8676 30.0717C34.3064 28.7266 35.1148 26.9022 35.1148 25C35.1148 23.0978 34.3064 21.2734 32.8676 19.9283C31.5335 18.6811 29.7586 17.9407 27.8852 17.8395Z" fill="black"/>
<path d="M11 29.5H17L25 36M28 19.5C30 19.8333 33.4574 21.8407 33 25.5C32.5 29.5 30 30 28 30.5M28 15.5C31.5 15.8333 38.2 18.8 37 26C35.8 33.2 30.5 34.5 28 34.5" stroke="black" stroke-opacity="0.3" stroke-linecap="round"/>
</svg>
