<svg width="62" height="66" viewBox="0 0 62 66" fill="none" xmlns="http://www.w3.org/2000/svg">
<rect x="25.8262" y="1.44211" width="10.7968" height="8.08823" rx="1" fill="#635EA2"/>
<circle cx="31.2311" cy="34.7308" r="30.2311" fill="#8880DC"/>
<circle cx="31.2311" cy="34.731" r="24.5453" fill="#9289F5"/>
<path d="M25.8262 4.98151L25.915 5.47356C26.153 5.43059 26.3262 5.22339 26.3262 4.98151H25.8262ZM36.623 4.97916H36.123C36.123 5.22113 36.2963 5.42837 36.5344 5.47125L36.623 4.97916ZM26.3262 2.44211C26.3262 2.16597 26.55 1.94211 26.8262 1.94211V0.942108C25.9977 0.942108 25.3262 1.61368 25.3262 2.44211H26.3262ZM26.3262 4.98151V2.44211H25.3262V4.98151H26.3262ZM1.5 34.7308C1.5 20.1257 12.0316 7.97936 25.915 5.47356L25.7374 4.48946C11.3864 7.07966 0.5 19.6334 0.5 34.7308H1.5ZM31.2311 64.4619C14.8111 64.4619 1.5 51.1509 1.5 34.7308H0.5C0.5 51.7031 14.2588 65.4619 31.2311 65.4619V64.4619ZM60.9622 34.7308C60.9622 51.1509 47.6511 64.4619 31.2311 64.4619V65.4619C48.2034 65.4619 61.9622 51.7031 61.9622 34.7308H60.9622ZM36.5344 5.47125C50.4241 7.97188 60.9622 20.1212 60.9622 34.7308H61.9622C61.9622 19.6287 51.0691 7.07193 36.7116 4.48707L36.5344 5.47125ZM36.123 2.44211V4.97916H37.123V2.44211H36.123ZM35.623 1.94211C35.8991 1.94211 36.123 2.16596 36.123 2.44211H37.123C37.123 1.61368 36.4514 0.942108 35.623 0.942108V1.94211ZM26.8262 1.94211H35.623V0.942108H26.8262V1.94211Z" fill="black"/>
<line x1="3.6518" y1="45.8295" x2="58.5806" y2="23.0772" stroke="black" stroke-width="0.6"/>
<line x1="42.3296" y1="62.3098" x2="19.5774" y2="7.38105" stroke="black" stroke-width="0.6"/>
<line x1="19.5775" y1="62.0802" x2="42.3298" y2="7.15143" stroke="black" stroke-width="0.6"/>
<line x1="3.88135" y1="23.0775" x2="58.8101" y2="45.8298" stroke="black" stroke-width="0.6"/>
<circle cx="4.02327" cy="34.7311" r="1.0077" fill="#CBECF7" stroke="black" stroke-width="0.6"/>
<circle cx="58.4395" cy="34.7311" r="1.0077" fill="#CBECF7" stroke="black" stroke-width="0.6"/>
<circle cx="31.2315" cy="61.9391" r="1.0077" fill="#CBECF7" stroke="black" stroke-width="0.6"/>
<ellipse cx="11.9922" cy="15.4924" rx="1.0077" ry="1.0077" transform="rotate(-45 11.9922 15.4924)" fill="white" stroke="black" stroke-width="0.6"/>
<ellipse cx="50.4703" cy="53.9704" rx="1.0077" ry="1.0077" transform="rotate(-45 50.4703 53.9704)" fill="white" stroke="black" stroke-width="0.6"/>
<ellipse cx="50.4706" cy="15.4922" rx="1.0077" ry="1.0077" transform="rotate(45 50.4706 15.4922)" fill="white" stroke="black" stroke-width="0.6"/>
<ellipse cx="11.9927" cy="53.9701" rx="1.0077" ry="1.0077" transform="rotate(45 11.9927 53.9701)" fill="white" stroke="black" stroke-width="0.6"/>
<ellipse cx="31.2311" cy="34.7312" rx="18.1387" ry="18.1387" fill="#ACCDFF" stroke="black" stroke-width="0.6"/>
<path d="M18.9438 35.3402C18.9438 28.8628 23.2879 23.394 31.2313 23.394C39.1747 23.394 43.5188 28.8628 43.5188 35.3402C43.5188 41.8176 40.54 46.945 31.2313 46.945C21.9226 46.945 18.9438 41.8176 18.9438 35.3402Z" fill="#A2B864" stroke="black" stroke-width="0.6"/>
<path d="M21.1655 35.3095C21.1655 30.0033 24.7241 25.5233 31.2313 25.5233C37.7385 25.5233 41.2972 30.0033 41.2972 35.3095C41.2972 40.6157 38.857 44.8161 31.2313 44.8161C23.6057 44.8161 21.1655 40.6157 21.1655 35.3095Z" fill="#B1CA6C"/>
<path fill-rule="evenodd" clip-rule="evenodd" d="M31.1484 36.7058C30.817 36.7058 30.5484 36.9744 30.5484 37.3058V38.8703C29.753 39.1514 29.1832 39.91 29.1832 40.8016C29.1832 41.9326 30.1 42.8495 31.2311 42.8495C32.3621 42.8495 33.279 41.9326 33.279 40.8016C33.279 39.9099 32.7091 39.1513 31.9137 38.8702V37.3058C31.9137 36.9744 31.645 36.7058 31.3137 36.7058H31.1484Z" fill="black"/>
<path d="M31.2313 31.8859C32.4804 31.8859 33.7384 31.5186 34.6918 30.8318C35.6503 30.1413 36.3097 29.1187 36.3097 27.8314C36.3097 26.6667 36.2329 25.5314 35.5101 24.7061C34.7813 23.874 33.4719 23.4356 31.2313 23.4356C28.9907 23.4356 27.6813 23.874 26.9524 24.7061C26.2297 25.5314 26.1528 26.6667 26.1528 27.8314C26.1528 29.1187 26.8123 30.1413 27.7707 30.8318C28.7242 31.5186 29.9822 31.8859 31.2313 31.8859Z" fill="white" stroke="black" stroke-width="0.6"/>
<path d="M32.5966 25.1008C32.5966 25.7835 31.9139 26.1248 31.2313 26.1248C30.5487 26.1248 29.866 25.7835 29.866 25.1008C29.866 24.2289 30.028 23.7356 31.2313 23.7356C32.4346 23.7356 32.5966 24.2289 32.5966 25.1008Z" fill="black" stroke="black"/>
<ellipse cx="31.2311" cy="34.7312" rx="18.1387" ry="18.1387" fill="#9DC0F6" fill-opacity="0.56" stroke="black" stroke-width="0.6"/>
<ellipse opacity="0.2" cx="31.231" cy="34.7314" rx="15.5852" ry="15.5851" fill="#E0ECFF"/>
<path d="M41.7859 23.1747C42.3079 23.7105 42.795 24.4123 42.9982 25.0199C43.0999 25.3242 43.1196 25.5726 43.07 25.7551C43.0254 25.9193 42.9173 26.0616 42.6749 26.1581C42.0175 26.4199 41.1519 26.0461 40.312 24.9451C40.1222 24.6962 39.9451 24.4687 39.7822 24.2593C39.3896 23.755 39.079 23.356 38.8697 23.0172C38.5671 22.5275 38.5742 22.3167 38.6765 22.1675C38.9146 21.8203 39.3519 21.7421 39.9775 21.9598C40.5918 22.1735 41.2689 22.6438 41.7859 23.1747Z" fill="#DFECFF" fill-opacity="0.69" stroke="black" stroke-width="0.6"/>
</svg>
