<svg width="44" height="50" viewBox="0 0 44 50" fill="none" xmlns="http://www.w3.org/2000/svg">
<g filter="url(#filter0_d_238_5)">
<g filter="url(#filter1_d_238_5)">
<path d="M10 21.6493C10 15.2156 15.2156 10 21.6493 10V10C28.083 10 33.2986 15.2156 33.2986 21.6493V28.306C33.2986 34.7398 28.083 39.9553 21.6493 39.9553V39.9553C15.2156 39.9553 10 34.7398 10 28.306L10 21.6493Z" fill="#41F09C"/>
</g>
<path d="M12.9122 21.4601C12.9122 16.6348 16.8239 12.7231 21.6492 12.7231V12.7231C26.4745 12.7231 30.3862 16.6348 30.3862 21.4601V28.4951C30.3862 33.3204 26.4745 37.232 21.6492 37.232V37.232C16.8239 37.232 12.9122 33.3204 12.9122 28.4951V21.4601Z" fill="#51D294"/>
</g>
<defs>
<filter id="filter0_d_238_5" x="0" y="0" width="43.2986" height="49.9551" filterUnits="userSpaceOnUse" color-interpolation-filters="sRGB">
<feFlood flood-opacity="0" result="BackgroundImageFix"/>
<feColorMatrix in="SourceAlpha" type="matrix" values="0 0 0 0 0 0 0 0 0 0 0 0 0 0 0 0 0 0 127 0" result="hardAlpha"/>
<feOffset/>
<feGaussianBlur stdDeviation="5"/>
<feComposite in2="hardAlpha" operator="out"/>
<feColorMatrix type="matrix" values="0 0 0 0 0 0 0 0 0 1 0 0 0 0 0.22 0 0 0 0.8 0"/>
<feBlend mode="normal" in2="BackgroundImageFix" result="effect1_dropShadow_238_5"/>
<feBlend mode="normal" in="SourceGraphic" in2="effect1_dropShadow_238_5" result="shape"/>
</filter>
<filter id="filter1_d_238_5" x="6" y="6" width="31.2986" height="37.9551" filterUnits="userSpaceOnUse" color-interpolation-filters="sRGB">
<feFlood flood-opacity="0" result="BackgroundImageFix"/>
<feColorMatrix in="SourceAlpha" type="matrix" values="0 0 0 0 0 0 0 0 0 0 0 0 0 0 0 0 0 0 127 0" result="hardAlpha"/>
<feOffset/>
<feGaussianBlur stdDeviation="2"/>
<feComposite in2="hardAlpha" operator="out"/>
<feColorMatrix type="matrix" values="0 0 0 0 0.379434 0 0 0 0 0.970833 0 0 0 0 0.28316 0 0 0 1 0"/>
<feBlend mode="normal" in2="BackgroundImageFix" result="effect1_dropShadow_238_5"/>
<feBlend mode="normal" in="SourceGraphic" in2="effect1_dropShadow_238_5" result="shape"/>
</filter>
</defs>
</svg>
