<svg width="66" height="66" viewBox="0 0 66 66" fill="none" xmlns="http://www.w3.org/2000/svg">
<rect x="1.5" y="1.5" width="63" height="63" rx="22.5" fill="#BBD6FF" stroke="#0A0A0A" stroke-width="3"/>
<rect x="5" y="5" width="56" height="56" rx="19" fill="#BBD6FF" stroke="#9FC3FA" stroke-width="4"/>
<path d="M49 37H50V38V45.3333C50 46.571 49.5083 47.758 48.6332 48.6332C47.758 49.5083 46.571 50 45.3333 50H19.6667C18.429 50 17.242 49.5083 16.3668 48.6332C15.4917 47.758 15 46.571 15 45.3333V19.6667C15 18.429 15.4917 17.242 16.3668 16.3668C17.242 15.4917 18.429 15 19.6667 15H45.3333C46.571 15 47.758 15.4917 48.6332 16.3668C49.5083 17.242 50 18.429 50 19.6667V27V28H49H45.3333H44.3333V27V20.6667H20.6667V44.3333H44.3333V38V37H45.3333H49ZM35.3333 39.8333V41.914L33.7086 40.6142L24.542 33.2809L23.5659 32.5L24.542 31.7191L33.7086 24.3858L35.3333 23.086V25.1667V29.6667H49H50V30.6667V34.3333V35.3333H49H35.3333V39.8333Z" fill="white" stroke="black" stroke-width="2"/>
<path d="M45.8333 19.6667V26.5H48.5V19.6667C48.5 18.8268 48.1664 18.0214 47.5725 17.4275C46.9786 16.8336 46.1732 16.5 45.3333 16.5H19.6667C18.8268 16.5 18.0214 16.8336 17.4275 17.4275C16.8336 18.0214 16.5 18.8268 16.5 19.6667V45.3333C16.5 46.1732 16.8336 46.9786 17.4275 47.5725C18.0214 48.1664 18.8268 48.5 19.6667 48.5H45.3333C46.1732 48.5 46.9786 48.1664 47.5725 47.5725C48.1664 46.9786 48.5 46.1732 48.5 45.3333V38.5H45.8333V45.3333V45.8333H45.3333H19.6667H19.1667V45.3333V19.6667V19.1667H19.6667H45.3333H45.8333V19.6667ZM33.8333 30.6667V26.207L25.9671 32.5L33.8333 38.793V34.3333V33.8333H34.3333H48.5V31.1667H34.3333H33.8333V30.6667Z" stroke="#FF2F2F" stroke-opacity="0.38"/>
</svg>
