<svg width="66" height="66" viewBox="0 0 66 66" fill="none" xmlns="http://www.w3.org/2000/svg">
<rect x="1.5" y="1.5" width="63" height="63" rx="22.5" fill="#BBD6FF" stroke="#0A0A0A" stroke-width="3"/>
<rect x="5" y="5" width="56" height="56" rx="19" fill="#BBD6FF" stroke="#9FC3FA" stroke-width="4"/>
<path fill-rule="evenodd" clip-rule="evenodd" d="M13.9375 21.4865C13.9375 17.3157 17.3277 13.9346 21.5098 13.9346H45.1005C49.2826 13.9346 52.6728 17.3157 52.6728 21.4865V45.0135C52.6728 49.1842 49.2826 52.5653 45.1005 52.5653H21.5098C17.3277 52.5653 13.9375 49.1842 13.9375 45.0135V21.4865ZM21.5098 19.7437C20.5447 19.7437 19.7624 20.524 19.7624 21.4865V45.0135C19.7624 45.9759 20.5447 46.7562 21.5098 46.7562H45.1005C46.0656 46.7562 46.8479 45.9759 46.8479 45.0135V21.4865C46.8479 20.524 46.0656 19.7437 45.1005 19.7437H21.5098Z" fill="white"/>
<path fill-rule="evenodd" clip-rule="evenodd" d="M13 21.4865C13 16.7995 16.8098 13 21.5095 13H45.1001C49.7998 13 53.6096 16.7995 53.6096 21.4865V45.0135C53.6096 49.7005 49.7998 53.5 45.1001 53.5H21.5095C16.8098 53.5 13 49.7005 13 45.0135V21.4865ZM21.5095 14.8692C17.845 14.8692 14.8743 17.8319 14.8743 21.4865V45.0135C14.8743 48.6681 17.845 51.6308 21.5095 51.6308H45.1001C48.7646 51.6308 51.7353 48.6681 51.7353 45.0135V21.4865C51.7353 17.8319 48.7646 14.8692 45.1001 14.8692H21.5095ZM21.5095 20.6784C21.0619 20.6784 20.6991 21.0402 20.6991 21.4865V45.0135C20.6991 45.4598 21.0619 45.8216 21.5095 45.8216H45.1001C45.5477 45.8216 45.9104 45.4598 45.9104 45.0135V21.4865C45.9104 21.0402 45.5477 20.6784 45.1001 20.6784H21.5095ZM18.8249 21.4865C18.8249 20.0078 20.0268 18.8091 21.5095 18.8091H45.1001C46.5828 18.8091 47.7847 20.0078 47.7847 21.4865V45.0135C47.7847 46.4922 46.5828 47.6909 45.1001 47.6909H21.5095C20.0268 47.6909 18.8249 46.4922 18.8249 45.0135V21.4865Z" fill="black" stroke="black"/>
<path d="M21.4341 34.8102L36.116 27.019L36.116 32.2664L52.6722 32.2664L52.6722 37.9788L36.116 37.9788L36.116 42.5959L21.4341 34.8102Z" fill="white"/>
<path fill-rule="evenodd" clip-rule="evenodd" d="M19.4385 33.8106L37.0531 24.4632L37.0531 30.3319L53.6093 30.3319L53.6093 37.9136L37.0531 37.9136L37.0531 43.1516L19.4385 33.8106ZM23.4296 33.8101L35.1788 40.0406L35.1788 36.0444L51.735 36.0444L51.735 32.2011L35.1788 32.2011L35.1788 27.5752L23.4296 33.8101Z" fill="black"/>
<path fill-rule="evenodd" clip-rule="evenodd" d="M52.5263 40.6613H46.9927V38.1689H52.5263V40.6613Z" fill="black" fill-opacity="0.3"/>
<path fill-rule="evenodd" clip-rule="evenodd" d="M52.5315 37.5459L35.1838 37.6114L35.1743 35.1191L52.522 35.0536L52.5315 37.5459Z" fill="black" fill-opacity="0.3"/>
<path fill-rule="evenodd" clip-rule="evenodd" d="M44.3627 20.4091C37.5712 20.3604 23.7159 20.2942 22.0291 20.4064C21.0892 20.4688 20.6199 20.8127 20.4287 21.0004V45.5945H17.9297V20.3508L18.0374 20.1091C18.4419 19.2015 19.7092 18.0628 21.8629 17.9196C23.6685 17.7995 37.6389 17.8686 44.3526 17.9166C45.0962 17.8911 46.2106 18.0328 47.1607 18.6259C47.6612 18.9382 48.1334 19.3882 48.4515 20.0143C48.7712 20.6435 48.8967 21.3747 48.8193 22.1857C48.5959 24.5248 48.726 29.4049 48.8237 31.5973L46.3271 31.708C46.2306 29.5435 46.0889 24.49 46.3315 21.9494C46.3705 21.5405 46.2995 21.2927 46.2224 21.1409C46.1437 20.9861 46.0188 20.8533 45.8349 20.7385C45.4303 20.486 44.8454 20.3905 44.4237 20.408L44.3932 20.4093L44.3627 20.4091Z" fill="black" fill-opacity="0.3"/>
</svg>
