<svg width="55" height="55" viewBox="0 0 55 55" fill="none" xmlns="http://www.w3.org/2000/svg">
<path d="M54.9411 25.7017C54.6284 20.9296 53.0766 16.3215 50.4388 12.3323C47.8011 8.34311 44.1687 5.11078 39.9 2.95435C35.6314 0.797925 30.8743 -0.20804 26.0981 0.0357562C21.3219 0.279553 16.6919 1.76468 12.6651 4.34455C8.63823 6.92441 5.35379 10.5098 3.13595 14.7468C0.918117 18.9839 -0.156431 23.726 0.0183775 28.5052C0.193186 33.2844 1.61131 37.9354 4.13276 41.999C6.65421 46.0627 10.1918 49.3986 14.3964 51.6774L27.5 27.5L54.9411 25.7017Z" fill="#FFDE32"/>
<circle cx="27.5308" cy="27.5317" r="24" stroke="black" stroke-opacity="0.3" stroke-width="4"/>
<path fill-rule="evenodd" clip-rule="evenodd" d="M51.585 23.0189C51.0136 19.9476 49.8583 17.0046 48.172 14.3529C45.9461 10.8526 42.8678 7.97473 39.2257 5.98912C35.5836 4.00351 31.497 2.97515 27.3488 3.00045C24.2065 3.01962 21.1069 3.64295 18.2158 4.82652L29.1935 24.3905L51.585 23.0189ZM54.5996 22.8342C53.9835 19.2555 52.6628 15.824 50.7035 12.7431C48.205 8.81413 44.7497 5.58388 40.6617 3.35513C36.5736 1.12638 31.9866 -0.0278867 27.3305 0.000511449C23.6795 0.02278 20.0797 0.771704 16.7379 2.19259C15.8181 2.58369 14.9178 3.02571 14.0413 3.5175L14.0417 3.51818C13.3493 3.90674 12.6756 4.32421 12.0223 4.7691C8.7474 6.999 5.98276 9.91745 3.92961 13.3335C1.35862 17.6112 0.000209918 22.5079 0 27.4988C-0.000209804 32.4896 1.35778 37.3864 3.92842 41.6643C5.98128 45.0806 8.74568 47.9993 12.0204 50.2295C12.6457 50.6553 13.2896 51.0561 13.9507 51.4304L13.9504 51.4308L13.9525 51.432C14.8267 51.9268 15.7246 52.3718 16.6419 52.766C20.2821 54.3302 24.2288 55.0942 28.2131 54.9906C33.2023 54.861 38.0621 53.3761 42.2717 50.6951C46.4813 48.014 49.8819 44.238 52.109 39.7716C53.8876 36.2048 54.8642 32.3052 54.986 28.3451C55.0167 27.3463 54.993 26.3437 54.9141 25.3415L54.9134 25.3416C54.8471 24.4996 54.7423 23.6629 54.5996 22.8342ZM13.4397 7.4361C10.6404 9.39774 8.27317 11.9303 6.50093 14.879C4.2104 18.69 3.00019 23.0525 3 27.4989C2.99981 31.9453 4.20966 36.3079 6.49987 40.1191C8.27186 43.068 10.6389 45.6007 13.438 47.5626L24.1026 27.4998L13.4397 7.4361ZM28.1352 51.9917C24.6961 52.081 21.2883 51.4449 18.1299 50.1378L29.324 30.3655L51.975 28.5822C51.824 31.997 50.9595 35.3541 49.4243 38.4329C47.4401 42.412 44.4105 45.7761 40.6601 48.1647C36.9098 50.5533 32.5801 51.8762 28.1352 51.9917Z" fill="black"/>
</svg>
