<svg width="34" height="34" viewBox="0 0 34 34" fill="none" xmlns="http://www.w3.org/2000/svg">
<path d="M12.9265 30.3147C13.6274 29.8563 14.1775 29.125 14.1775 28.2171V5.78286C14.1775 4.87503 13.6274 4.14374 12.9265 3.6853C12.2246 3.22625 11.3327 3 10.4516 3H7.72582C6.84475 3 5.95284 3.22625 5.251 3.6853C4.55009 4.14374 4 4.87503 4 5.78286V28.2171C4 29.125 4.55008 29.8563 5.251 30.3147C5.95284 30.7737 6.84475 31 7.72582 31H10.4516C11.3327 31 12.2246 30.7737 12.9265 30.3147ZM28.749 30.3147C29.4499 29.8563 30 29.125 30 28.2171V5.78286C30 4.87503 29.4499 4.14374 28.749 3.6853C28.0472 3.22625 27.1552 3 26.2742 3H23.5484C22.6673 3 21.7754 3.22625 21.0735 3.6853C20.3726 4.14374 19.8225 4.87503 19.8225 5.78286V28.2171C19.8225 29.125 20.3726 29.8563 21.0735 30.3147C21.7754 30.7737 22.6673 31 23.5484 31H26.2742C27.1552 31 28.0472 30.7737 28.749 30.3147Z" fill="white" stroke="black" stroke-width="2"/>
</svg>
