<svg width="132" height="132" viewBox="0 0 132 132" fill="none" xmlns="http://www.w3.org/2000/svg">
<mask id="mask0_354_23" style="mask-type:alpha" maskUnits="userSpaceOnUse" x="0" y="0" width="132" height="132">
<circle r="65.1286" transform="matrix(0 -1 -1 0 66.031 66.0311)" fill="#A060B7"/>
</mask>
<g mask="url(#mask0_354_23)">
<circle r="65.1286" transform="matrix(0 -1 -1 0 66.031 66.0311)" fill="#C69678"/>
<path d="M95.6415 3.4806C93.0467 2.83042 91.8134 2.96594 91.1367 3.33886C90.4881 3.69634 90.0825 4.41427 89.6458 5.91844C89.5115 6.381 89.381 6.89383 89.2394 7.45019C88.4698 10.4744 87.373 14.7848 83.5604 19.301C79.6309 23.9557 78.5471 27.7063 78.8839 30.6196C79.2121 33.4589 80.9504 35.9602 83.7369 38.2128C86.5327 40.4728 90.1893 42.3128 93.8858 43.7641C97.5626 45.2077 101.177 46.228 103.83 46.8927C108.594 48.0864 111.98 48.0542 114.234 47.2694C116.438 46.5019 117.587 45.0138 117.97 43.094C118.365 41.1127 117.979 38.4876 116.728 35.4036C115.482 32.3332 113.422 28.9193 110.636 25.4668C105.17 18.6921 103.526 13.7064 102.37 10.2003C102.255 9.85148 102.145 9.51729 102.036 9.19743C101.44 7.44335 100.981 6.43174 100.226 5.65431C99.4756 4.8808 98.2116 4.12462 95.6415 3.4806Z" fill="#D5B9A2" stroke="black" stroke-width="3"/>
<path d="M57.831 47.6526C58.6445 45.7141 58.7041 44.8139 58.568 44.3469C58.4541 43.9562 58.1487 43.6708 57.2399 43.2727C56.9562 43.1484 56.6348 43.0226 56.283 42.8849C54.3367 42.1229 51.4589 40.9962 48.8723 37.7501C46.2922 34.5121 44.0315 33.6311 42.3137 33.7042C40.6463 33.7752 38.8503 34.7814 36.9172 36.7752C35.0096 38.7428 33.2494 41.3953 31.7385 44.1173C30.2378 46.8208 29.0317 49.5031 28.2029 51.4781C26.7152 55.023 26.2654 57.5708 26.4705 59.2865C26.6708 60.9612 27.4743 61.7753 28.5016 62.1072C29.5932 62.4599 31.2428 62.3672 33.4373 61.622C35.6135 60.8829 38.1679 59.5514 40.8808 57.6542C43.8481 55.579 46.3087 54.3294 48.3983 53.5048C50.0957 52.8349 51.5444 52.4514 52.673 52.1526C52.9153 52.0884 53.1428 52.0282 53.3549 51.9698C54.5988 51.6277 55.2333 51.3715 55.7747 50.9211C56.3466 50.4455 57.0271 49.5681 57.831 47.6526Z" fill="#D5B9A2" stroke="black" stroke-width="3"/>
<path d="M106.11 86.7977C103.972 85.0121 102.162 84.6136 100.398 84.7357C98.8308 84.8442 97.274 85.3492 95.3551 85.9716C94.9024 86.1184 94.4295 86.2718 93.9316 86.428C91.4159 87.2174 88.4966 87.9808 85.04 87.8187C81.5753 87.6562 77.6984 86.5722 73.1867 83.8704C67.7487 80.6139 63.5538 79.088 60.3341 78.7926C57.2092 78.5059 55.0377 79.3728 53.384 80.9907C51.6398 82.6972 50.3189 85.3897 49.3364 88.9839C48.3613 92.5511 47.7663 96.8253 47.3394 101.532C46.9118 106.246 46.8428 109.523 47.1571 111.866C47.4671 114.177 48.1328 115.445 49.0679 116.287C50.0455 117.168 51.4822 117.74 53.7357 118.317C54.711 118.566 55.792 118.806 57.0157 119.077C57.1925 119.116 57.3723 119.156 57.5552 119.197C58.9936 119.517 60.5981 119.88 62.3658 120.338C66.0444 121.29 68.3448 122.632 69.9421 124.18C71.2748 125.472 72.0742 126.882 72.7427 128.061C72.8568 128.262 72.967 128.456 73.0755 128.642C73.8344 129.944 74.5497 130.944 75.8956 131.687C77.2722 132.447 79.4715 133.023 83.3771 133.065C84.2661 133.075 84.932 132.745 85.6706 131.839C86.4901 130.834 87.2503 129.284 88.1785 127.107C88.4433 126.485 88.7175 125.824 89.0065 125.126C90.6931 121.056 92.8872 115.762 96.7095 110.076C98.1434 107.943 100.035 105.802 101.845 103.754L101.986 103.594C103.875 101.457 105.666 99.4155 106.99 97.4094C108.315 95.4021 109.055 93.5978 109.035 91.9344C109.016 90.3303 108.284 88.6128 106.11 86.7977Z" fill="#D5B9A2" stroke="black" stroke-width="3"/>
<circle r="63.6286" transform="matrix(0 -1 -1 0 66.031 66.0311)" stroke="black" stroke-width="3"/>
</g>
</svg>
