<svg width="141" height="141" viewBox="0 0 141 141" fill="none" xmlns="http://www.w3.org/2000/svg">
<mask id="mask0_391_3" style="mask-type:alpha" maskUnits="userSpaceOnUse" x="4" y="4" width="132" height="132">
<circle r="65.1286" transform="matrix(-0.0783475 -0.996926 -0.996926 0.0783475 70.031 70.031)" fill="#A060B7"/>
</mask>
<g mask="url(#mask0_391_3)">
<circle r="65.1286" transform="matrix(-0.0783475 -0.996926 -0.996926 0.0783475 70.031 70.031)" fill="#D5B9A2"/>
<mask id="path-3-outside-1_391_3" maskUnits="userSpaceOnUse" x="-5.09991" y="-5.04172" width="149.463" height="149.463" fill="black">
<rect fill="white" x="-5.09991" y="-5.04172" width="149.463" height="149.463"/>
<path fill-rule="evenodd" clip-rule="evenodd" d="M5.1026 75.1336C2.28448 39.2747 29.0694 7.92071 64.9283 5.10259C71.9886 4.54773 78.8742 5.14046 85.4018 6.72406C84.4707 7.70002 84.1922 9.30557 83.8335 11.3741C83.3017 14.4406 82.5935 18.5246 79.3207 23.083C64.7689 43.3509 92.0528 49.7729 102.974 51.6151C122.915 54.9783 121.563 40.5481 108.951 27.2086C103.225 21.1521 101.311 16.586 99.9052 13.233L99.9051 13.233L99.9051 13.2329C99.7006 12.7452 99.5069 12.2832 99.3138 11.846C118.961 21.7574 133.109 41.3875 134.959 64.9283C137.114 92.3488 121.96 117.135 98.6741 128.542C98.791 128.186 98.9099 127.821 99.0316 127.447C100.395 123.256 102.118 117.963 105.399 112.144C106.608 110.001 108.269 107.794 109.938 105.577C115.073 98.7565 120.279 91.8413 112.593 86.3866C107.968 83.1038 104.431 84.5701 100.248 86.3041C95.2205 88.3879 89.2605 90.8585 79.3585 85.9384C56.3416 74.5018 52.8759 87.9925 52.6475 106.999C52.4512 123.329 55.1098 123.703 64.8499 125.073C66.4464 125.298 68.2331 125.549 70.2287 125.902C76.782 127.061 78.6021 129.747 80.2589 132.193C80.7133 132.864 81.1555 133.516 81.6797 134.114C79.5356 134.501 77.352 134.785 75.1336 134.959C39.2747 137.777 7.92072 110.993 5.1026 75.1336ZM59.1991 50.6841C60.7778 45.9029 59.2899 45.4486 56.5461 44.6108C54.5571 44.0035 51.9082 43.1948 49.2892 40.3903C37.644 27.9211 29.6179 48.405 26.8948 56.6522C21.923 71.7094 31.8065 71.6143 42.4875 62.8218C47.337 58.8298 50.6665 57.6608 53.1114 56.8023C56.0515 55.77 57.7124 55.1868 59.1991 50.6841Z"/>
</mask>
<path fill-rule="evenodd" clip-rule="evenodd" d="M5.1026 75.1336C2.28448 39.2747 29.0694 7.92071 64.9283 5.10259C71.9886 4.54773 78.8742 5.14046 85.4018 6.72406C84.4707 7.70002 84.1922 9.30557 83.8335 11.3741C83.3017 14.4406 82.5935 18.5246 79.3207 23.083C64.7689 43.3509 92.0528 49.7729 102.974 51.6151C122.915 54.9783 121.563 40.5481 108.951 27.2086C103.225 21.1521 101.311 16.586 99.9052 13.233L99.9051 13.233L99.9051 13.2329C99.7006 12.7452 99.5069 12.2832 99.3138 11.846C118.961 21.7574 133.109 41.3875 134.959 64.9283C137.114 92.3488 121.96 117.135 98.6741 128.542C98.791 128.186 98.9099 127.821 99.0316 127.447C100.395 123.256 102.118 117.963 105.399 112.144C106.608 110.001 108.269 107.794 109.938 105.577C115.073 98.7565 120.279 91.8413 112.593 86.3866C107.968 83.1038 104.431 84.5701 100.248 86.3041C95.2205 88.3879 89.2605 90.8585 79.3585 85.9384C56.3416 74.5018 52.8759 87.9925 52.6475 106.999C52.4512 123.329 55.1098 123.703 64.8499 125.073C66.4464 125.298 68.2331 125.549 70.2287 125.902C76.782 127.061 78.6021 129.747 80.2589 132.193C80.7133 132.864 81.1555 133.516 81.6797 134.114C79.5356 134.501 77.352 134.785 75.1336 134.959C39.2747 137.777 7.92072 110.993 5.1026 75.1336ZM59.1991 50.6841C60.7778 45.9029 59.2899 45.4486 56.5461 44.6108C54.5571 44.0035 51.9082 43.1948 49.2892 40.3903C37.644 27.9211 29.6179 48.405 26.8948 56.6522C21.923 71.7094 31.8065 71.6143 42.4875 62.8218C47.337 58.8298 50.6665 57.6608 53.1114 56.8023C56.0515 55.77 57.7124 55.1868 59.1991 50.6841Z" fill="#C69678"/>
<path d="M85.4018 6.72406L86.3448 2.83682L93.0798 4.47075L88.2959 9.48517L85.4018 6.72406ZM83.8335 11.3741L79.8924 10.6906L79.8924 10.6906L83.8335 11.3741ZM79.3207 23.083L76.0714 20.7501L76.0714 20.7501L79.3207 23.083ZM102.974 51.6151L103.64 47.6708L103.64 47.6708L102.974 51.6151ZM108.951 27.2086L111.858 24.4606L111.858 24.4606L108.951 27.2086ZM99.9052 13.233L103.589 11.6747L103.594 11.6864L99.9052 13.233ZM99.9051 13.233L103.589 11.6746L99.9051 13.233ZM99.9051 13.2329L96.2211 14.7912L96.2162 14.7795L99.9051 13.2329ZM99.3138 11.846L95.6548 13.4621L91.1412 3.24307L101.115 8.27469L99.3138 11.846ZM98.6741 128.542L100.434 132.134L91.9154 136.307L94.8736 127.295L98.6741 128.542ZM99.0316 127.447L95.228 126.209L95.228 126.209L99.0316 127.447ZM105.399 112.144L108.884 114.109L105.399 112.144ZM109.938 105.577L113.134 107.982L113.134 107.982L109.938 105.577ZM112.593 86.3866L114.908 83.1246L112.593 86.3866ZM100.248 86.3041L98.7159 82.609L98.7159 82.609L100.248 86.3041ZM79.3585 85.9384L81.1384 82.3562L81.1384 82.3562L79.3585 85.9384ZM52.6475 106.999L56.6472 107.047L56.6472 107.047L52.6475 106.999ZM64.8499 125.073L64.2926 129.034L64.2926 129.034L64.8499 125.073ZM70.2287 125.902L70.925 121.963L70.925 121.963L70.2287 125.902ZM80.2589 132.193L76.9473 134.436L76.9473 134.436L80.2589 132.193ZM81.6797 134.114L84.6876 131.478L89.3484 136.795L82.3903 138.051L81.6797 134.114ZM56.5461 44.6108L55.378 48.4364L55.378 48.4364L56.5461 44.6108ZM59.1991 50.6841L62.9974 51.9383L62.9974 51.9383L59.1991 50.6841ZM49.2892 40.3903L46.3658 43.1205L46.3658 43.1205L49.2892 40.3903ZM26.8948 56.6522L23.0964 55.398L23.0964 55.398L26.8948 56.6522ZM42.4875 62.8218L39.9453 59.7336L39.9453 59.7336L42.4875 62.8218ZM53.1114 56.8023L51.7863 53.0282L51.7863 53.0282L53.1114 56.8023ZM65.2417 9.0903C31.5851 11.7353 6.44526 41.1636 9.0903 74.8202L1.11489 75.447C-1.87631 37.3857 26.5536 4.10609 64.6149 1.11489L65.2417 9.0903ZM84.4587 10.6113C78.3369 9.12614 71.8753 8.56897 65.2417 9.0903L64.6149 1.11489C72.1019 0.526497 79.4115 1.15477 86.3448 2.83682L84.4587 10.6113ZM79.8924 10.6906C80.06 9.72378 80.257 8.55591 80.5667 7.50685C80.8838 6.43278 81.4204 5.10258 82.5076 3.96295L88.2959 9.48517C88.4521 9.3215 88.3839 9.28205 88.2393 9.77186C88.0874 10.2867 87.9658 10.9558 87.7747 12.0575L79.8924 10.6906ZM76.0714 20.7501C78.7859 16.9694 79.3786 13.6531 79.8924 10.6906L87.7747 12.0575C87.2249 15.2281 86.4011 20.0798 82.57 25.4159L76.0714 20.7501ZM102.309 55.5593C96.847 54.6381 86.4967 52.4735 79.3318 47.5568C75.6801 45.051 72.3766 41.5015 71.4164 36.6019C70.4479 31.66 72.0554 26.3438 76.0714 20.7501L82.57 25.4159C79.3101 29.9562 78.8711 33.0431 79.267 35.0634C79.6712 37.1258 81.1428 39.0972 83.8583 40.9606C89.4278 44.7824 98.1802 46.7499 103.64 47.6708L102.309 55.5593ZM111.858 24.4606C115.218 28.0144 117.919 31.7335 119.719 35.3333C121.486 38.8651 122.56 42.6351 122.142 46.1484C121.688 49.9562 119.504 53.0908 115.701 54.7592C112.193 56.2984 107.636 56.4577 102.309 55.5593L103.64 47.6708C108.283 48.454 111.034 48.0707 112.487 47.4334C113.645 46.9251 114.073 46.2491 114.198 45.2023C114.358 43.861 113.975 41.7325 112.565 38.912C111.188 36.1595 108.991 33.0726 106.045 29.9566L111.858 24.4606ZM103.594 11.6864C104.915 14.8373 106.605 18.9045 111.858 24.4606L106.045 29.9566C99.8456 23.3998 97.7068 18.3348 96.2162 14.7796L103.594 11.6864ZM103.589 11.6746L103.589 11.6747L96.2212 14.7914L96.2212 14.7913L103.589 11.6746ZM103.589 11.6746L103.589 11.6746L96.2212 14.7913L96.2211 14.7912L103.589 11.6746ZM102.973 10.2299C103.184 10.708 103.393 11.2061 103.594 11.6863L96.2162 14.7795C96.0086 14.2843 95.8299 13.8584 95.6548 13.4621L102.973 10.2299ZM130.972 65.2417C129.236 43.1514 115.964 24.7254 97.5122 15.4173L101.115 8.27469C121.959 18.7893 136.983 39.6236 138.947 64.6149L130.972 65.2417ZM96.9144 124.95C118.776 114.24 132.994 90.9718 130.972 65.2417L138.947 64.6149C141.235 93.7258 125.143 120.03 100.434 132.134L96.9144 124.95ZM102.835 128.685C102.714 129.058 102.593 129.428 102.475 129.79L94.8736 127.295C94.9886 126.944 95.106 126.584 95.228 126.209L102.835 128.685ZM108.884 114.109C105.816 119.548 104.196 124.504 102.835 128.685L95.228 126.209C96.5948 122.009 98.4198 116.378 101.915 110.179L108.884 114.109ZM113.134 107.982C111.424 110.253 109.937 112.24 108.884 114.109L101.915 110.179C103.279 107.761 105.114 105.334 106.743 103.171L113.134 107.982ZM114.908 83.1246C117.332 84.845 119.086 86.9348 119.934 89.4507C120.78 91.9644 120.563 94.4335 119.903 96.6229C118.67 100.717 115.552 104.771 113.134 107.982L106.743 103.171C109.459 99.5624 111.511 96.7482 112.243 94.3162C112.566 93.2425 112.53 92.5337 112.352 92.0036C112.174 91.4756 111.697 90.6555 110.278 89.6485L114.908 83.1246ZM98.7159 82.609C100.674 81.7971 103.194 80.7156 105.907 80.4791C108.9 80.2184 111.875 80.9716 114.908 83.1246L110.278 89.6485C108.686 88.5187 107.58 88.3637 106.602 88.4489C105.345 88.5584 104.004 89.0771 101.779 89.9992L98.7159 82.609ZM81.1384 82.3562C85.5242 84.5354 88.7706 84.9597 91.3185 84.7599C93.9626 84.5527 96.1664 83.6658 98.7159 82.609L101.779 89.9992C99.3016 91.0262 96.0119 92.4165 91.9437 92.7355C87.7794 93.0619 83.0948 92.2614 77.5786 89.5205L81.1384 82.3562ZM48.6477 106.951C48.7058 102.122 48.9687 97.4381 49.7515 93.3325C50.5246 89.2773 51.881 85.3565 54.4446 82.4213C57.1695 79.3014 60.9271 77.6714 65.559 77.7318C69.9844 77.7896 75.1426 79.377 81.1384 82.3562L77.5786 89.5205C72.0659 86.7814 68.1597 85.7665 65.4546 85.7312C62.956 85.6986 61.5173 86.4848 60.47 87.6838C59.2616 89.0675 58.2701 91.3683 57.6099 94.8308C56.9593 98.2429 56.7033 102.373 56.6472 107.047L48.6477 106.951ZM64.2926 129.034C61.9618 128.706 59.6299 128.388 57.6612 127.8C55.5724 127.176 53.5112 126.146 51.9075 124.155C50.3623 122.237 49.579 119.84 49.1512 117.147C48.723 114.453 48.5979 111.096 48.6477 106.951L56.6472 107.047C56.5989 111.067 56.7325 113.881 57.052 115.892C57.3719 117.905 57.8252 118.749 58.1376 119.137C58.3915 119.452 58.809 119.793 59.952 120.135C61.2151 120.513 62.868 120.755 65.4072 121.112L64.2926 129.034ZM69.5323 129.841C67.6147 129.502 65.8926 129.26 64.2926 129.034L65.4072 121.112C67.0002 121.337 68.8515 121.597 70.925 121.963L69.5323 129.841ZM76.9473 134.436C76.1088 133.199 75.5612 132.433 74.6646 131.753C73.799 131.098 72.3368 130.337 69.5323 129.841L70.925 121.963C74.6739 122.626 77.3984 123.788 79.4954 125.377C81.5614 126.942 82.7522 128.742 83.5705 129.949L76.9473 134.436ZM78.6717 136.751C77.9561 135.935 77.3782 135.072 76.9473 134.436L83.5705 129.949C84.0485 130.655 84.3549 131.098 84.6876 131.478L78.6717 136.751ZM74.8202 130.972C76.9052 130.808 78.9563 130.541 80.969 130.178L82.3903 138.051C80.115 138.462 77.7988 138.762 75.447 138.947L74.8202 130.972ZM9.0903 74.8202C11.7353 108.477 41.1636 133.617 74.8202 130.972L75.447 138.947C37.3857 141.938 4.1061 113.508 1.11489 75.447L9.0903 74.8202ZM57.7141 40.7851C58.3178 40.9695 59.2274 41.2384 60.0404 41.6201C60.9116 42.0292 62.0509 42.7328 62.8712 44.0259C64.4843 46.5687 63.7743 49.5856 62.9974 51.9383L55.4008 49.43C55.5674 48.9255 55.6772 48.5269 55.7466 48.2152C55.8166 47.9011 55.8373 47.7115 55.8424 47.6184C55.8474 47.5268 55.8346 47.5737 55.8641 47.7128C55.8965 47.8657 55.9702 48.0817 56.1159 48.3114C56.4186 48.7885 56.7701 48.9226 56.64 48.8615C56.5767 48.8318 56.4536 48.7809 56.2265 48.7038C55.996 48.6255 55.7346 48.5453 55.378 48.4364L57.7141 40.7851ZM52.2126 37.6602C54.0756 39.6551 55.8548 40.2174 57.7141 40.7851L55.378 48.4364C53.2595 47.7896 49.7409 46.7344 46.3658 43.1205L52.2126 37.6602ZM23.0964 55.398C24.4568 51.2781 27.3331 43.4344 31.6651 38.2018C33.8285 35.5885 36.8512 33.0176 40.7774 32.5403C44.9281 32.0356 48.7931 33.9987 52.2126 37.6602L46.3658 43.1205C43.9627 40.5474 42.4575 40.3949 41.7429 40.4818C40.8039 40.5959 39.4664 41.3235 37.8274 43.3034C34.5541 47.2572 32.0558 53.7791 30.6931 57.9063L23.0964 55.398ZM45.0297 65.9101C42.1499 68.2806 39.2089 70.1635 36.425 71.3597C33.7494 72.5093 30.7092 73.2429 27.8936 72.5715C26.4046 72.2165 24.9937 71.466 23.8708 70.2339C22.7631 69.0184 22.1189 67.5366 21.8094 65.9895C21.2148 63.0174 21.7702 59.4148 23.0964 55.398L30.6931 57.9063C29.5335 61.4182 29.4599 63.4502 29.6539 64.4202C29.7388 64.8443 29.8433 64.9105 29.7837 64.8452C29.709 64.7633 29.6458 64.7651 29.7491 64.7897C30.118 64.8777 31.2406 64.88 33.2669 64.0094C35.1848 63.1854 37.4846 61.7592 39.9453 59.7336L45.0297 65.9101ZM54.4366 60.5764C52.2227 61.3537 49.3768 62.3316 45.0297 65.9101L39.9453 59.7336C45.2973 55.328 49.1103 53.9678 51.7863 53.0282L54.4366 60.5764ZM62.9974 51.9383C62.1432 54.5255 61.0564 56.5656 59.3168 58.0701C57.6717 59.4929 55.754 60.1138 54.4366 60.5764L51.7863 53.0282C53.4089 52.4585 53.7917 52.2717 54.0837 52.0191C54.2812 51.8483 54.7683 51.3455 55.4008 49.43L62.9974 51.9383Z" fill="black" mask="url(#path-3-outside-1_391_3)"/>
<circle r="63.1286" transform="matrix(-0.0783475 -0.996926 -0.996926 0.0783475 70.031 70.031)" stroke="black" stroke-width="4"/>
</g>
</svg>
