<svg width="68" height="70" viewBox="0 0 68 70" fill="none" xmlns="http://www.w3.org/2000/svg">
<path d="M40 3.26192L40 6.94186L29 7.15833L29 3.26192C33.4 -0.547895 38.5 1.15833 40 3.26192Z" fill="#9289F5" stroke="black"/>
<path d="M39.5 4.45838C35.5 2.45838 31.1667 3.62504 29.5 4.45838V2.95837C31 1.95837 33.5 1.45837 34.5 1.45837C37 1.45837 38.5 2.45837 39.5 2.95838V4.45838Z" fill="#6760B5"/>
<circle cx="34.2311" cy="36.4472" r="30.2311" fill="#8880DC"/>
<circle cx="34.2308" cy="36.4473" r="24.5453" fill="#9289F5"/>
<path d="M63.9622 36.4472C63.9622 52.8672 50.6511 66.1783 34.2311 66.1783V67.1783C51.2034 67.1783 64.9622 53.4195 64.9622 36.4472H63.9622ZM34.2311 66.1783C17.8111 66.1783 4.5 52.8672 4.5 36.4472H3.5C3.5 53.4195 17.2588 67.1783 34.2311 67.1783V66.1783ZM4.5 36.4472C4.5 20.0271 17.8111 6.71606 34.2311 6.71606V5.71606C17.2588 5.71606 3.5 19.4748 3.5 36.4472H4.5ZM34.2311 6.71606C50.6511 6.71606 63.9622 20.0271 63.9622 36.4472H64.9622C64.9622 19.4748 51.2034 5.71606 34.2311 5.71606V6.71606Z" fill="black"/>
<line x1="6.6518" y1="47.5461" x2="61.5806" y2="24.7938" stroke="black" stroke-width="0.6"/>
<line x1="45.3298" y1="64.0263" x2="22.5775" y2="9.09751" stroke="black" stroke-width="0.6"/>
<line x1="22.5773" y1="63.7967" x2="45.3296" y2="8.86789" stroke="black" stroke-width="0.6"/>
<line x1="6.88141" y1="24.7939" x2="61.8102" y2="47.5461" stroke="black" stroke-width="0.6"/>
<g filter="url(#filter0_d_379_41)">
<g filter="url(#filter1_d_379_41)">
<circle cx="8.01562" cy="37.4396" r="2" fill="#FF2222"/>
<circle cx="8.01562" cy="37.4396" r="2.15" stroke="black" stroke-width="0.3"/>
</g>
<g filter="url(#filter2_d_379_41)">
<circle cx="60.4316" cy="37.4397" r="2" fill="#FF2222"/>
<circle cx="60.4316" cy="37.4397" r="2.15" stroke="black" stroke-width="0.3"/>
</g>
<g filter="url(#filter3_d_379_41)">
<circle cx="34.2236" cy="62.6476" r="2" fill="#FF2222"/>
<circle cx="34.2236" cy="62.6476" r="2.15" stroke="black" stroke-width="0.3"/>
</g>
<g filter="url(#filter4_d_379_41)">
<ellipse cx="15.8279" cy="18.9868" rx="2" ry="2" transform="rotate(-45 15.8279 18.9868)" fill="#FF2222"/>
<ellipse cx="15.8279" cy="18.9868" rx="2" ry="2" transform="rotate(-45 15.8279 18.9868)" stroke="black" stroke-width="0.3"/>
</g>
<g filter="url(#filter5_d_379_41)">
<ellipse cx="52.743" cy="54.9761" rx="2" ry="2" transform="rotate(-45 52.743 54.9761)" fill="#FF2222"/>
<ellipse cx="52.743" cy="54.9761" rx="2" ry="2" transform="rotate(-45 52.743 54.9761)" stroke="black" stroke-width="0.3"/>
</g>
<g filter="url(#filter6_d_379_41)">
<ellipse cx="52.4712" cy="18.6118" rx="2" ry="2" transform="rotate(45 52.4712 18.6118)" fill="#FF2222"/>
<ellipse cx="52.4712" cy="18.6118" rx="2" ry="2" transform="rotate(45 52.4712 18.6118)" stroke="black" stroke-width="0.3"/>
</g>
<g filter="url(#filter7_d_379_41)">
<ellipse cx="15.9937" cy="54.0897" rx="2" ry="2" transform="rotate(45 15.9937 54.0897)" fill="#FF2222"/>
<ellipse cx="15.9937" cy="54.0897" rx="2" ry="2" transform="rotate(45 15.9937 54.0897)" stroke="black" stroke-width="0.3"/>
</g>
</g>
<ellipse cx="34.2309" cy="36.4471" rx="18.1387" ry="18.1387" fill="#ACCDFF" stroke="black" stroke-width="0.6"/>
<path d="M21.9436 37.0567C21.9436 30.5793 26.2877 25.1105 34.2311 25.1105C42.1745 25.1105 46.5186 30.5793 46.5186 37.0567C46.5186 43.534 43.5398 48.6615 34.2311 48.6615C24.9224 48.6615 21.9436 43.534 21.9436 37.0567Z" fill="#A2B864" stroke="black" stroke-width="0.6"/>
<path d="M24.1657 37.0257C24.1657 31.7195 27.7243 27.2395 34.2315 27.2395C40.7387 27.2395 44.2974 31.7195 44.2974 37.0257C44.2974 42.3319 41.8572 46.5323 34.2315 46.5323C26.6059 46.5323 24.1657 42.3319 24.1657 37.0257Z" fill="#B1CA6C"/>
<path fill-rule="evenodd" clip-rule="evenodd" d="M34.1483 38.4219C33.817 38.4219 33.5483 38.6905 33.5483 39.0219V40.5864C32.7529 40.8675 32.1831 41.6261 32.1831 42.5177C32.1831 43.6487 33.1 44.5656 34.231 44.5656C35.362 44.5656 36.2789 43.6487 36.2789 42.5177C36.2789 41.626 35.709 40.8674 34.9136 40.5863V39.0219C34.9136 38.6905 34.645 38.4219 34.3136 38.4219H34.1483Z" fill="black"/>
<path d="M34.2311 33.6021C35.4802 33.6021 36.7382 33.2348 37.6916 32.548C38.6501 31.8575 39.3096 30.8349 39.3096 29.5476C39.3096 28.383 39.2327 27.2476 38.5099 26.4224C37.7811 25.5902 36.4717 25.1518 34.2311 25.1518C31.9905 25.1518 30.6811 25.5902 29.9523 26.4224C29.2295 27.2476 29.1526 28.383 29.1526 29.5476C29.1526 30.8349 29.8121 31.8575 30.7706 32.548C31.724 33.2348 32.982 33.6021 34.2311 33.6021Z" fill="white" stroke="black" stroke-width="0.6"/>
<path d="M35.5963 26.8171C35.5963 27.4997 34.9136 27.841 34.231 27.841C33.5484 27.841 32.8657 27.4997 32.8657 26.8171C32.8657 25.9451 33.0277 25.4518 34.231 25.4518C35.4343 25.4518 35.5963 25.9451 35.5963 26.8171Z" fill="black" stroke="black"/>
<ellipse cx="34.2309" cy="36.4471" rx="18.1387" ry="18.1387" fill="#9DC0F6" fill-opacity="0.3" stroke="black" stroke-width="0.6"/>
<ellipse opacity="0.2" cx="34.2311" cy="36.4471" rx="15.5852" ry="15.5851" fill="#E0ECFF"/>
<path d="M44.7857 24.8908C45.3076 25.4266 45.7947 26.1284 45.9979 26.736C46.0997 27.0403 46.1194 27.2887 46.0698 27.4712C46.0252 27.6354 45.917 27.7777 45.6746 27.8742C45.0173 28.136 44.1516 27.7622 43.3118 26.6612C43.122 26.4123 42.9449 26.1848 42.7819 25.9754C42.3894 25.4711 42.0788 25.0721 41.8694 24.7333C41.5668 24.2436 41.5739 24.0327 41.6762 23.8836C41.9144 23.5364 42.3517 23.4582 42.9773 23.6759C43.5916 23.8896 44.2687 24.3599 44.7857 24.8908Z" fill="#DFECFF" fill-opacity="0.45" stroke="black" stroke-width="0.6"/>
<defs>
<filter id="filter0_d_379_41" x="0.71582" y="11.3118" width="67.0156" height="58.6359" filterUnits="userSpaceOnUse" color-interpolation-filters="sRGB">
<feFlood flood-opacity="0" result="BackgroundImageFix"/>
<feColorMatrix in="SourceAlpha" type="matrix" values="0 0 0 0 0 0 0 0 0 0 0 0 0 0 0 0 0 0 127 0" result="hardAlpha"/>
<feOffset/>
<feGaussianBlur stdDeviation="2.5"/>
<feComposite in2="hardAlpha" operator="out"/>
<feColorMatrix type="matrix" values="0 0 0 0 1 0 0 0 0 0.133333 0 0 0 0 0.133333 0 0 0 0.11 0"/>
<feBlend mode="normal" in2="BackgroundImageFix" result="effect1_dropShadow_379_41"/>
<feBlend mode="normal" in="SourceGraphic" in2="effect1_dropShadow_379_41" result="shape"/>
</filter>
<filter id="filter1_d_379_41" x="0.71582" y="30.1395" width="14.5996" height="14.6001" filterUnits="userSpaceOnUse" color-interpolation-filters="sRGB">
<feFlood flood-opacity="0" result="BackgroundImageFix"/>
<feColorMatrix in="SourceAlpha" type="matrix" values="0 0 0 0 0 0 0 0 0 0 0 0 0 0 0 0 0 0 127 0" result="hardAlpha"/>
<feOffset/>
<feGaussianBlur stdDeviation="2.5"/>
<feComposite in2="hardAlpha" operator="out"/>
<feColorMatrix type="matrix" values="0 0 0 0 1 0 0 0 0 0.133333 0 0 0 0 0.133333 0 0 0 1 0"/>
<feBlend mode="normal" in2="BackgroundImageFix" result="effect1_dropShadow_379_41"/>
<feBlend mode="normal" in="SourceGraphic" in2="effect1_dropShadow_379_41" result="shape"/>
</filter>
<filter id="filter2_d_379_41" x="53.1318" y="30.1396" width="14.5996" height="14.6001" filterUnits="userSpaceOnUse" color-interpolation-filters="sRGB">
<feFlood flood-opacity="0" result="BackgroundImageFix"/>
<feColorMatrix in="SourceAlpha" type="matrix" values="0 0 0 0 0 0 0 0 0 0 0 0 0 0 0 0 0 0 127 0" result="hardAlpha"/>
<feOffset/>
<feGaussianBlur stdDeviation="2.5"/>
<feComposite in2="hardAlpha" operator="out"/>
<feColorMatrix type="matrix" values="0 0 0 0 1 0 0 0 0 0.133333 0 0 0 0 0.133333 0 0 0 1 0"/>
<feBlend mode="normal" in2="BackgroundImageFix" result="effect1_dropShadow_379_41"/>
<feBlend mode="normal" in="SourceGraphic" in2="effect1_dropShadow_379_41" result="shape"/>
</filter>
<filter id="filter3_d_379_41" x="26.9238" y="55.3475" width="14.5996" height="14.6001" filterUnits="userSpaceOnUse" color-interpolation-filters="sRGB">
<feFlood flood-opacity="0" result="BackgroundImageFix"/>
<feColorMatrix in="SourceAlpha" type="matrix" values="0 0 0 0 0 0 0 0 0 0 0 0 0 0 0 0 0 0 127 0" result="hardAlpha"/>
<feOffset/>
<feGaussianBlur stdDeviation="2.5"/>
<feComposite in2="hardAlpha" operator="out"/>
<feColorMatrix type="matrix" values="0 0 0 0 1 0 0 0 0 0.133333 0 0 0 0 0.133333 0 0 0 1 0"/>
<feBlend mode="normal" in2="BackgroundImageFix" result="effect1_dropShadow_379_41"/>
<feBlend mode="normal" in="SourceGraphic" in2="effect1_dropShadow_379_41" result="shape"/>
</filter>
<filter id="filter4_d_379_41" x="8.52783" y="11.6868" width="14.6001" height="14.6001" filterUnits="userSpaceOnUse" color-interpolation-filters="sRGB">
<feFlood flood-opacity="0" result="BackgroundImageFix"/>
<feColorMatrix in="SourceAlpha" type="matrix" values="0 0 0 0 0 0 0 0 0 0 0 0 0 0 0 0 0 0 127 0" result="hardAlpha"/>
<feOffset/>
<feGaussianBlur stdDeviation="2.5"/>
<feComposite in2="hardAlpha" operator="out"/>
<feColorMatrix type="matrix" values="0 0 0 0 1 0 0 0 0 0 0 0 0 0 0 0 0 0 1 0"/>
<feBlend mode="normal" in2="BackgroundImageFix" result="effect1_dropShadow_379_41"/>
<feBlend mode="normal" in="SourceGraphic" in2="effect1_dropShadow_379_41" result="shape"/>
</filter>
<filter id="filter5_d_379_41" x="45.4429" y="47.676" width="14.6001" height="14.6001" filterUnits="userSpaceOnUse" color-interpolation-filters="sRGB">
<feFlood flood-opacity="0" result="BackgroundImageFix"/>
<feColorMatrix in="SourceAlpha" type="matrix" values="0 0 0 0 0 0 0 0 0 0 0 0 0 0 0 0 0 0 127 0" result="hardAlpha"/>
<feOffset/>
<feGaussianBlur stdDeviation="2.5"/>
<feComposite in2="hardAlpha" operator="out"/>
<feColorMatrix type="matrix" values="0 0 0 0 1 0 0 0 0 0 0 0 0 0 0 0 0 0 1 0"/>
<feBlend mode="normal" in2="BackgroundImageFix" result="effect1_dropShadow_379_41"/>
<feBlend mode="normal" in="SourceGraphic" in2="effect1_dropShadow_379_41" result="shape"/>
</filter>
<filter id="filter6_d_379_41" x="45.1714" y="11.3118" width="14.5996" height="14.6" filterUnits="userSpaceOnUse" color-interpolation-filters="sRGB">
<feFlood flood-opacity="0" result="BackgroundImageFix"/>
<feColorMatrix in="SourceAlpha" type="matrix" values="0 0 0 0 0 0 0 0 0 0 0 0 0 0 0 0 0 0 127 0" result="hardAlpha"/>
<feOffset/>
<feGaussianBlur stdDeviation="2.5"/>
<feComposite in2="hardAlpha" operator="out"/>
<feColorMatrix type="matrix" values="0 0 0 0 1 0 0 0 0 0 0 0 0 0 0 0 0 0 1 0"/>
<feBlend mode="normal" in2="BackgroundImageFix" result="effect1_dropShadow_379_41"/>
<feBlend mode="normal" in="SourceGraphic" in2="effect1_dropShadow_379_41" result="shape"/>
</filter>
<filter id="filter7_d_379_41" x="8.69385" y="46.7897" width="14.5996" height="14.6" filterUnits="userSpaceOnUse" color-interpolation-filters="sRGB">
<feFlood flood-opacity="0" result="BackgroundImageFix"/>
<feColorMatrix in="SourceAlpha" type="matrix" values="0 0 0 0 0 0 0 0 0 0 0 0 0 0 0 0 0 0 127 0" result="hardAlpha"/>
<feOffset/>
<feGaussianBlur stdDeviation="2.5"/>
<feComposite in2="hardAlpha" operator="out"/>
<feColorMatrix type="matrix" values="0 0 0 0 1 0 0 0 0 0 0 0 0 0 0 0 0 0 1 0"/>
<feBlend mode="normal" in2="BackgroundImageFix" result="effect1_dropShadow_379_41"/>
<feBlend mode="normal" in="SourceGraphic" in2="effect1_dropShadow_379_41" result="shape"/>
</filter>
</defs>
</svg>
