<svg width="48" height="48" viewBox="0 0 48 48" fill="none" xmlns="http://www.w3.org/2000/svg">
<mask id="path-1-inside-1_236_9" fill="white">
<path d="M1.44738 32.2085C0.369424 29.2468 -0.114634 26.1019 0.0228426 22.9531C0.160319 19.8044 0.916636 16.7136 2.24861 13.8572C3.58059 11.0007 5.46214 8.43462 7.78584 6.30534C10.1095 4.17607 12.8299 2.52533 15.7915 1.44738L17.12 5.09724C14.6376 6.00074 12.3575 7.38433 10.4099 9.16901C8.46227 10.9537 6.88522 13.1045 5.76881 15.4987C4.6524 17.8928 4.01848 20.4834 3.90325 23.1226C3.78802 25.7617 4.19374 28.3977 5.09724 30.88L1.44738 32.2085Z"/>
</mask>
<path d="M1.44738 32.2085C0.369424 29.2468 -0.114634 26.1019 0.0228426 22.9531C0.160319 19.8044 0.916636 16.7136 2.24861 13.8572C3.58059 11.0007 5.46214 8.43462 7.78584 6.30534C10.1095 4.17607 12.8299 2.52533 15.7915 1.44738L17.12 5.09724C14.6376 6.00074 12.3575 7.38433 10.4099 9.16901C8.46227 10.9537 6.88522 13.1045 5.76881 15.4987C4.6524 17.8928 4.01848 20.4834 3.90325 23.1226C3.78802 25.7617 4.19374 28.3977 5.09724 30.88L1.44738 32.2085Z" stroke="black" stroke-width="1.2" mask="url(#path-1-inside-1_236_9)"/>
<mask id="path-2-inside-2_236_9" fill="white">
<path d="M32.2085 1.44738C35.1701 2.52533 37.8905 4.17607 40.2142 6.30535C42.5379 8.43462 44.4194 11.0007 45.7514 13.8572C47.0834 16.7136 47.8397 19.8044 47.9772 22.9531C48.1146 26.1019 47.6306 29.2468 46.5526 32.2085L42.9028 30.8801C43.8063 28.3977 44.212 25.7617 44.0967 23.1226C43.9815 20.4834 43.3476 17.8928 42.2312 15.4987C41.1148 13.1045 39.5377 10.9537 37.5901 9.16901C35.6425 7.38433 33.3624 6.00074 30.88 5.09724L32.2085 1.44738Z"/>
</mask>
<path d="M32.2085 1.44738C35.1701 2.52533 37.8905 4.17607 40.2142 6.30535C42.5379 8.43462 44.4194 11.0007 45.7514 13.8572C47.0834 16.7136 47.8397 19.8044 47.9772 22.9531C48.1146 26.1019 47.6306 29.2468 46.5526 32.2085L42.9028 30.8801C43.8063 28.3977 44.212 25.7617 44.0967 23.1226C43.9815 20.4834 43.3476 17.8928 42.2312 15.4987C41.1148 13.1045 39.5377 10.9537 37.5901 9.16901C35.6425 7.38433 33.3624 6.00074 30.88 5.09724L32.2085 1.44738Z" fill="#51D294" stroke="black" stroke-width="1.2" mask="url(#path-2-inside-2_236_9)"/>
<mask id="path-3-inside-3_236_9" fill="white">
<path d="M40.9706 40.9706C36.4697 45.4714 30.3652 48 24 48C17.6348 48 11.5303 45.4714 7.02944 40.9706L9.77592 38.2241C13.5484 41.9965 18.6649 44.1159 24 44.1159C29.3351 44.1159 34.4516 41.9965 38.2241 38.2241L40.9706 40.9706Z"/>
</mask>
<path d="M40.9706 40.9706C36.4697 45.4714 30.3652 48 24 48C17.6348 48 11.5303 45.4714 7.02944 40.9706L9.77592 38.2241C13.5484 41.9965 18.6649 44.1159 24 44.1159C29.3351 44.1159 34.4516 41.9965 38.2241 38.2241L40.9706 40.9706Z" fill="#51D294" stroke="black" stroke-width="1.2" mask="url(#path-3-inside-3_236_9)"/>
</svg>
