<svg width="36" height="36" viewBox="0 0 36 36" fill="none" xmlns="http://www.w3.org/2000/svg">
<path d="M31.4388 4.71372L15.7412 0.608099C15.401 0.519111 15.0403 0.552502 14.7222 0.702439L2.61033 6.41098C2.1373 6.63392 1.81453 7.08713 1.75848 7.60705L0.539923 18.9105C0.503925 19.2444 0.581034 19.5808 0.758897 19.8656L8.34319 32.0137C8.57343 32.3825 8.95236 32.6332 9.38181 32.701L26.4289 35.3904C27.025 35.4845 27.6195 35.2121 27.9375 34.6991L35.2225 22.949C35.418 22.6337 35.4897 22.2571 35.4238 21.892L32.5354 5.89832C32.4316 5.32367 32.0038 4.86148 31.4388 4.71372Z" fill="#BE8F70" stroke="black"/>
<path d="M15.9027 7.11627C16.1138 7.01738 16.3529 6.99536 16.5785 7.05401L26.3953 9.6058C26.7723 9.70378 27.058 10.0117 27.1276 10.3949L28.9309 20.3188C28.9754 20.5635 28.9271 20.8159 28.7955 21.0269L24.2788 28.2673C24.0666 28.6075 23.6716 28.788 23.2754 28.7259L12.632 27.0571C12.3463 27.0123 12.094 26.846 11.9401 26.6011L7.18486 19.031C7.06513 18.8405 7.0132 18.615 7.03748 18.3913L7.79072 11.4469C7.82838 11.0997 8.04444 10.7973 8.3607 10.6492L15.9027 7.11627Z" fill="#EBB089"/>
<path d="M24.6089 16.4523L26.9503 19.7527L24.6032 20.217L21.5666 19.2054L22.3357 15.9373L24.6089 16.4523Z" fill="#BE8F70"/>
<path d="M13.5902 21.9231L16.5316 22.3908L15.5756 23.8528L13.5902 24.2364L11.5261 22.3908L13.5902 21.9231Z" fill="#BE8F70"/>
<path d="M16.1674 11.0926L18.5435 10.6114L18.588 12.8178L17.0753 13.7009L15.1268 13.1618L14.1106 10.5938L16.1674 11.0926Z" fill="#BE8F70"/>
</svg>
