<svg width="50" height="50" viewBox="0 0 50 50" fill="none" xmlns="http://www.w3.org/2000/svg">
<circle cx="25" cy="25" r="23.5" fill="#BBD6FF" stroke="black" stroke-width="3"/>
<circle cx="25" cy="25" r="20.5" stroke="#9FC3FA" stroke-width="3"/>
<path fill-rule="evenodd" clip-rule="evenodd" d="M21.2971 19.6896V30.3778C21.2971 32.3701 20.4823 33.8712 19.0891 34.7472C17.8458 35.529 16.4412 35.6208 15.4953 35.4945C15.3313 35.5055 15.1601 35.5111 14.9815 35.5111C12.8015 35.5111 11.0342 33.8695 11.0342 31.8445C11.0342 29.8194 12.8015 28.1778 14.9815 28.1778C15.7554 28.1778 16.4774 28.3847 17.0866 28.7422V17.421C17.0866 15.5288 18.7384 14 20.7708 14L32.3497 17C34.5342 17.5 36.0339 18.5322 36.0339 20.4222V29.8889L36.0339 29.9482C36.0347 30.6543 36.0365 32.1899 35.1435 33.5402C34.0864 35.1387 32.1631 36 29.455 36V35.992C29.368 35.9973 29.2803 36 29.192 36C27.0119 36 25.2446 34.3584 25.2446 32.3333C25.2446 30.3083 27.0119 28.6667 29.192 28.6667C30.2029 28.6667 31.125 29.0197 31.8234 29.6002V22.4992L21.2971 19.6896Z" fill="white"/>
<path d="M21.2971 19.6896L21.4261 19.2065L20.7971 19.0387V19.6896H21.2971ZM19.0891 34.7472L19.3553 35.1705L19.3553 35.1705L19.0891 34.7472ZM15.4953 35.4945L15.5615 34.9989L15.5119 34.9923L15.4619 34.9956L15.4953 35.4945ZM17.0866 28.7422L16.8336 29.1734L17.5866 29.6153V28.7422H17.0866ZM20.7708 14L20.8962 13.516L20.8346 13.5H20.7708V14ZM32.3497 17L32.2243 17.484L32.2312 17.4858L32.2381 17.4874L32.3497 17ZM36.0339 29.8889L35.5339 29.8889L35.5339 29.8893L36.0339 29.8889ZM36.0339 29.9482L35.5339 29.9486L35.5339 29.9488L36.0339 29.9482ZM35.1435 33.5402L34.7265 33.2644L34.7265 33.2644L35.1435 33.5402ZM29.455 36H28.955V36.5H29.455V36ZM29.455 35.992H29.955V35.4605L29.4245 35.4929L29.455 35.992ZM31.8234 29.6002L31.5038 29.9847L32.3234 30.666V29.6002H31.8234ZM31.8234 22.4992H32.3234V22.1152L31.9523 22.0161L31.8234 22.4992ZM20.7971 19.6896V30.3778H21.7971V19.6896H20.7971ZM20.7971 30.3778C20.7971 32.221 20.0522 33.551 18.823 34.3239L19.3553 35.1705C20.9123 34.1914 21.7971 32.5192 21.7971 30.3778H20.7971ZM18.823 34.3239C17.7054 35.0266 16.4275 35.1145 15.5615 34.9989L15.4291 35.9901C16.4549 36.1271 17.9862 36.0314 19.3553 35.1705L18.823 34.3239ZM15.4619 34.9956C15.3096 35.0058 15.1496 35.0111 14.9815 35.0111V36.0111C15.1705 36.0111 15.3529 36.0052 15.5287 35.9934L15.4619 34.9956ZM14.9815 35.0111C13.0422 35.0111 11.5342 33.5593 11.5342 31.8445H10.5342C10.5342 34.1797 12.5607 36.0111 14.9815 36.0111V35.0111ZM11.5342 31.8445C11.5342 30.1297 13.0422 28.6778 14.9815 28.6778V27.6778C12.5607 27.6778 10.5342 29.5092 10.5342 31.8445H11.5342ZM14.9815 28.6778C15.6658 28.6778 16.3004 28.8606 16.8336 29.1734L17.3397 28.3109C16.6543 27.9088 15.8451 27.6778 14.9815 27.6778V28.6778ZM17.5866 28.7422V17.421H16.5866V28.7422H17.5866ZM17.5866 17.421C17.5866 15.8397 18.9785 14.5 20.7708 14.5V13.5C18.4983 13.5 16.5866 15.218 16.5866 17.421H17.5866ZM20.6454 14.484L32.2243 17.484L32.4751 16.516L20.8962 13.516L20.6454 14.484ZM32.2381 17.4874C33.2911 17.7284 34.1237 18.0866 34.6851 18.5691C35.2284 19.0359 35.5339 19.6304 35.5339 20.4222H36.5339C36.5339 19.324 36.0896 18.4574 35.3369 17.8106C34.6024 17.1795 33.5928 16.7716 32.4613 16.5126L32.2381 17.4874ZM35.5339 20.4222V29.8889H36.5339V20.4222H35.5339ZM35.5339 29.8893L35.5339 29.9486L36.5339 29.9479L36.5339 29.8885L35.5339 29.8893ZM35.5339 29.9488C35.5347 30.6565 35.5284 32.0517 34.7265 33.2644L35.5606 33.816C36.5446 32.3281 36.5347 30.6521 36.5339 29.9477L35.5339 29.9488ZM34.7265 33.2644C33.7935 34.6752 32.0619 35.5 29.455 35.5V36.5C32.2644 36.5 34.3794 35.6022 35.5606 33.816L34.7265 33.2644ZM29.955 36V35.992H28.955V36H29.955ZM29.192 36.5C29.2905 36.5 29.3884 36.497 29.4855 36.491L29.4245 35.4929C29.3477 35.4976 29.2702 35.5 29.192 35.5V36.5ZM24.7446 32.3333C24.7446 34.6686 26.7711 36.5 29.192 36.5V35.5C27.2527 35.5 25.7446 34.0481 25.7446 32.3333H24.7446ZM29.192 28.1667C26.7711 28.1667 24.7446 29.998 24.7446 32.3333H25.7446C25.7446 30.6185 27.2527 29.1667 29.192 29.1667V28.1667ZM32.143 29.2157C31.3552 28.5608 30.3201 28.1667 29.192 28.1667V29.1667C30.0857 29.1667 30.8949 29.4785 31.5038 29.9847L32.143 29.2157ZM32.3234 29.6002V22.4992H31.3234V29.6002H32.3234ZM31.9523 22.0161L21.4261 19.2065L21.1682 20.1727L31.6944 22.9823L31.9523 22.0161Z" fill="black"/>
<path d="M12.955 31.8854C13.2098 31.0322 13.7741 30.6455 14.3814 30.5506C15.0337 30.4487 15.7791 30.6812 16.3024 31.2045L17.6965 29.7955C16.7198 28.8188 15.3308 28.3675 14.0408 28.569C12.7059 28.7776 11.5201 29.6817 11.0436 31.2777L12.955 31.8854Z" fill="black" fill-opacity="0.3"/>
<path d="M26.7223 32.1078C27.3135 31.0088 28.1301 30.4795 28.811 30.392C29.4311 30.3122 30.1175 30.5714 30.6586 31.5006L32.3394 30.4995C31.4263 28.9315 29.9913 28.1869 28.5038 28.3781C27.0771 28.5615 25.7997 29.5777 24.9915 31.08L26.7223 32.1078Z" fill="black" fill-opacity="0.3"/>
<path d="M22 19L32 22" stroke="black" stroke-opacity="0.3" stroke-width="2" stroke-linecap="round"/>
</svg>
