<svg width="138" height="170" viewBox="0 0 138 170" fill="none" xmlns="http://www.w3.org/2000/svg">
<path d="M108.928 19.3574L109.028 23.2544L112.926 23.2544L115.993 23.2544L117.505 23.2544L118.639 22.2544C119.76 21.2652 121.174 19.4701 121.613 17.093C122.116 14.3695 121.212 11.5237 118.639 9.25442L117.505 8.2544L115.993 8.2544L112.746 8.2544L108.642 8.2544L108.747 12.3574L108.928 19.3574Z" fill="#B38FFF" stroke="#B38FFF" stroke-width="8"/>
<path d="M116.993 20.2544L113.926 20.2544L113.746 11.2544L116.993 11.2544C120.168 14.8544 118.316 18.7544 116.993 20.2544Z" fill="#B38FFF" stroke="#B38FFF" stroke-width="8"/>
<path d="M108.928 158.357L109.028 162.254L112.926 162.254L115.993 162.254L117.505 162.254L118.639 161.254C119.76 160.265 121.174 158.47 121.613 156.093C122.116 153.369 121.212 150.524 118.639 148.254L117.505 147.254L115.993 147.254L112.746 147.254L108.642 147.254L108.747 151.357L108.928 158.357Z" fill="#B38FFF" stroke="#B38FFF" stroke-width="8"/>
<path d="M116.993 159.254L113.926 159.254L113.746 150.254L116.993 150.254C120.168 153.854 118.316 157.754 116.993 159.254Z" fill="#B38FFF" stroke="#B38FFF" stroke-width="8"/>
<path d="M23.9176 74.5684L32.9372 74.5684L33.4678 96.4246L23.9176 96.4246C14.5796 87.6821 20.0267 78.2111 23.9176 74.5684Z" fill="#B38FFF" stroke="#B38FFF" stroke-width="8"/>
<path d="M30.2838 74.5684L39.3034 74.5684L39.834 96.4246L30.2838 96.4246C20.9458 87.6821 26.3929 78.2111 30.2838 74.5684Z" fill="#B38FFF"/>
<path d="M39.3035 149.575L36.5697 152.495C36.4643 152.396 36.2708 152.277 35.9866 152.183C35.8539 152.14 35.7312 152.112 35.6372 152.097C35.5922 152.089 35.5627 152.086 35.5499 152.085C35.2792 152.082 35.0095 152.052 34.7448 151.995L7.15527 146.034C5.26702 145.626 3.94015 143.927 4.00205 141.996C4.06394 140.065 5.49692 138.454 7.40742 138.168C13.4673 137.261 22.5044 134.111 29.963 129.475C33.6755 127.168 36.8187 124.601 38.9946 121.927C40.6281 119.919 41.618 117.979 42.0085 116.12C39.2348 113.833 35.7967 110.377 32.8433 105.961C29.1829 100.489 26.1361 93.3388 26.2698 85.0044C26.1361 76.67 29.1829 69.5202 32.8433 64.0477C35.7967 59.6322 39.2348 56.176 42.0085 53.8891C41.618 52.03 40.6281 50.0896 38.9946 48.082C36.8187 45.4079 33.6755 42.841 29.963 40.5336C22.5044 35.8978 13.4673 32.7483 7.40742 31.8405C5.49692 31.5543 4.06394 29.9436 4.00205 28.0128C3.94015 26.082 5.26703 24.3828 7.15527 23.9749L34.7448 18.0141C35.0094 17.9569 35.2792 17.9267 35.5498 17.9241C35.5626 17.9228 35.5921 17.9196 35.6372 17.9122C35.7312 17.8966 35.8539 17.869 35.9866 17.8254C36.2708 17.7321 36.4643 17.6123 36.5697 17.5137C37.1062 17.0113 38.1696 16.2163 39.2392 15.4352C40.4099 14.5803 41.8843 13.5311 43.4484 12.4308C46.5795 10.228 50.1229 7.78359 52.4313 6.20426C52.6099 6.08207 52.7981 5.97457 52.9941 5.88283C53.8664 5.4745 55.47 5.00882 57.3428 5.00882L106.127 5.00882L106.133 5.00869L106.164 5.00789C106.176 5.0076 106.188 5.00728 106.201 5.00693C106.849 4.99 109.569 4.91894 112.252 5.90922C113.668 6.43169 115.296 7.32763 116.579 8.88787C117.915 10.5117 118.644 12.5758 118.644 14.9692C118.644 17.3399 117.973 19.398 116.73 21.0564C115.522 22.6685 113.961 23.6556 112.548 24.2623C109.893 25.403 107.142 25.4494 106.348 25.4628C106.33 25.4631 106.312 25.4634 106.296 25.4637L106.232 25.4649L106.232 25.4649C105.363 25.4817 104.553 25.4611 103.928 25.4451L103.902 25.4445C103.503 25.4343 103.211 25.4271 102.972 25.4271C102.621 25.4271 100.98 25.3867 98.7134 25.3308L98.4205 25.3236C94.0446 25.2157 87.2124 25.0473 81.1933 24.9399C79.9983 25.3072 78.2522 26.0965 76.7162 27.36C75.0213 28.7543 73.7895 30.5387 73.518 32.8267C73.2615 34.9881 74.3065 38.0482 76.4613 41.4785C78.4798 44.6919 81.0466 47.5591 82.7855 49.2052L119.237 78.5252L126.847 78.5252C127.094 78.5252 127.341 78.548 127.583 78.5935C128.737 78.8096 131.004 79.6205 132.391 81.7386C133.078 82.4568 133.5 83.4307 133.5 84.5032C133.5 84.6711 133.494 84.8382 133.483 85.0044C133.494 85.1706 133.5 85.3377 133.5 85.5056C133.5 86.578 133.078 87.5519 132.391 88.2702C131.004 90.3883 128.737 91.1992 127.583 91.4153C127.341 91.4607 127.094 91.4836 126.847 91.4836L119.237 91.4836L82.7855 120.804C81.0465 122.45 78.4798 125.317 76.4613 128.53C74.3065 131.961 73.2615 135.021 73.518 137.182C73.7895 139.47 75.0213 141.254 76.7162 142.649C78.2522 143.912 79.9984 144.702 81.1933 145.069C87.2123 144.961 94.0444 144.793 98.4202 144.685L98.7086 144.678C100.978 144.622 102.621 144.582 102.972 144.582C103.211 144.582 103.503 144.574 103.902 144.564L103.929 144.564C104.553 144.548 105.362 144.527 106.231 144.544C106.231 144.544 106.232 144.544 106.232 144.544M39.3035 149.575L106.155 148.543L106.232 144.544M39.3035 149.575L36.5697 152.495C37.1062 152.997 38.1696 153.792 39.2392 154.574C40.4099 155.428 41.8843 156.478 43.4484 157.578C46.5795 159.781 50.1229 162.225 52.4313 163.805C52.6099 163.927 52.7981 164.034 52.9941 164.126C53.8664 164.534 55.47 165 57.3428 165L106.127 165L106.155 165L106.131 165L106.133 165L106.165 165.001L106.201 165.002C106.849 165.019 109.569 165.09 112.252 164.1C113.668 163.577 115.296 162.681 116.579 161.121C117.915 159.497 118.644 157.433 118.644 155.04C118.644 152.669 117.973 150.611 116.73 148.952C115.522 147.34 113.961 146.353 112.549 145.747C109.893 144.606 107.142 144.559 106.348 144.546L106.296 144.545L106.295 144.545L106.232 144.544M39.3035 149.575L106.232 144.544M106.115 5.00911C106.111 5.00918 106.113 5.00914 106.118 5.00907L106.115 5.00911Z" fill="#B38FFF" stroke="#B38FFF" stroke-width="8" stroke-linejoin="round"/>
<path d="M77.6966 58.0356L106.155 84.7401L77.6966 112.051C64.5453 113.467 38.2426 109.988 38.2426 84.7401C38.2426 59.4923 64.5453 56.4172 77.6966 58.0356Z" fill="#B38FFF" stroke="#B38FFF" stroke-width="8"/>
<path d="M77.4838 66.8606L96.6045 84.8253L77.4838 103.198C68.6478 104.151 50.9757 101.81 50.9757 84.8253C50.9757 67.8405 68.6478 65.7718 77.4838 66.8606Z" fill="#B38FFF" stroke="#B38FFF" stroke-width="8"/>
<path d="M66.4878 74.7043L77.6045 84.9005L66.4878 95.3283C61.3506 95.8691 51.0761 94.5406 51.0761 84.9005C51.0761 75.2604 61.3506 74.0863 66.4878 74.7043Z" fill="#B38FFF" stroke="#B38FFF" stroke-width="8"/>
<path d="M58.4746 79.6133C60.3994 78.7613 62.8164 78.5035 64.7969 78.581L71.7227 84.9334L64.7993 91.4279C62.8308 91.4686 60.4366 91.1722 58.5202 90.2951C57.3953 89.7802 56.5706 89.1289 56.0248 88.3592C55.5034 87.6238 55.0761 86.5585 55.0761 84.9005C55.0761 83.242 55.5034 82.1948 56.013 81.4836C56.5474 80.738 57.358 80.1076 58.4746 79.6133Z" fill="#B38FFF" stroke="#B38FFF" stroke-width="8"/>
<path d="M45.1401 24.8956L27.6314 28.8694L45.1401 36.3204L50.9763 45.7583L65.3017 45.7583L61.0571 30.8564L69.0156 18.9348L56.8126 14.9609L45.1401 24.8956Z" fill="#B38FFF" stroke="#B38FFF" stroke-width="8"/>
<path d="M43.9157 145.778L25.5091 141.676L43.9157 133.985L50.0512 124.242L65.1112 124.242L60.649 139.625L69.0156 151.931L56.1868 156.033L43.9157 145.778Z" fill="#B38FFF" stroke="#B38FFF" stroke-width="8"/>
<path d="M44.3474 141.097L33.0045 139.207L43.9611 134.104L47.3782 128.146L56.5489 127.702L54.3355 136.955L59.8334 144.005L52.1557 146.816L44.3474 141.097Z" fill="#B38FFF" stroke="#B38FFF" stroke-width="8"/>
<path d="M46.4705 28.9033L35.1276 30.7929L46.0842 35.8962L49.5013 41.854L58.6719 42.298L56.4586 33.0452L61.9565 25.9948L54.2788 23.1842L46.4705 28.9033Z" fill="#B38FFF" stroke="#B38FFF" stroke-width="8"/>
<path d="M46.6987 137.877L52.7692 142.323L53.3111 142.125L51.1855 139.399L49.9954 137.873L50.4434 136L51.411 131.955L49.7734 132.035L47.4361 136.11L46.8112 137.199L46.1766 137.495L46.6987 137.877Z" fill="#B38FFF" stroke="#B38FFF" stroke-width="8"/>
<path d="M48.8217 32.1228L54.8922 27.6765L55.4341 27.8749L53.3086 30.6007L52.1185 32.1269L52.5664 33.9997L53.534 38.0446L51.8964 37.9653L49.5591 33.8903L48.9342 32.8007L48.2997 32.5051L48.8217 32.1228Z" fill="#B38FFF" stroke="#B38FFF" stroke-width="8"/>
<path d="M50.2009 55.7016C50.2009 56.9902 49.5801 58.1998 48.5333 58.9512C46.2492 60.5907 42.5539 63.919 39.4929 68.4954C36.4435 73.0546 34.155 78.6476 34.2697 84.9314C34.2706 84.9801 34.2706 85.0287 34.2697 85.0774C34.155 91.3611 36.4435 96.9542 39.4929 101.513C42.5539 106.09 46.2492 109.418 48.5333 111.058C49.5801 111.809 50.2009 113.019 50.2009 114.307C50.2009 119.111 48.1177 123.39 45.1999 126.976C42.2857 130.557 38.3657 133.672 34.186 136.27C30.9692 138.269 27.4929 140.027 24.0225 141.494L36.1096 144.105C37.5901 144.213 40.0501 144.795 42.0373 146.655C42.0335 146.652 42.0315 146.65 42.0315 146.65C42.0316 146.65 42.0683 146.682 42.16 146.757C42.2627 146.841 42.4013 146.95 42.5787 147.086C42.9334 147.359 43.3985 147.705 43.9571 148.113C45.0723 148.927 46.5028 149.945 48.0514 151.035C50.9546 153.077 54.2267 155.337 56.511 156.902C56.5235 156.905 56.5364 156.908 56.5497 156.911C56.7678 156.96 57.0456 157 57.3428 157L106.155 157C106.235 157 106.329 157.002 106.36 157.003L106.367 157.003C106.893 157.017 108.306 157.029 109.483 156.594C110.024 156.395 110.284 156.181 110.4 156.04C110.464 155.962 110.644 155.734 110.644 155.04C110.644 154.237 110.441 153.9 110.328 153.75C110.181 153.553 109.905 153.318 109.391 153.097C108.257 152.61 106.865 152.556 106.155 152.544C106.155 152.544 106.154 152.544 106.154 152.544L106.079 152.542L106.078 152.542C105.4 152.529 104.75 152.545 104.106 152.562L104.074 152.563C103.714 152.572 103.323 152.582 102.972 152.582C102.97 152.582 102.961 152.582 102.943 152.582L102.858 152.583C102.828 152.584 102.794 152.584 102.755 152.585C102.703 152.586 102.644 152.587 102.578 152.588C102.346 152.593 102.035 152.6 101.653 152.609C100.889 152.627 99.8538 152.652 98.6173 152.683L98.6101 152.683C94.0991 152.794 86.9424 152.971 80.7571 153.078C80.4115 153.084 80.0665 153.045 79.7309 152.962C77.5422 152.423 74.4095 151.11 71.6339 148.827C68.8101 146.504 66.1511 142.99 65.5737 138.125C64.9813 133.133 67.2965 128.08 69.6869 124.275C72.1724 120.318 75.2719 116.879 77.4234 114.864C77.4965 114.796 77.5721 114.73 77.6501 114.667L114.528 85.0044L77.6501 55.3414C77.5721 55.2786 77.4965 55.2129 77.4234 55.1445C75.2719 53.1303 72.1724 49.6907 69.6869 45.7339C67.2965 41.9285 64.9813 36.8754 65.5737 31.8838C66.1511 27.0188 68.8101 23.5048 71.6339 21.1818C74.4095 18.8985 77.5422 17.5858 79.7309 17.0465C80.0665 16.9638 80.4115 16.925 80.7571 16.931C86.9433 17.0383 94.1011 17.2147 98.612 17.3259L98.6176 17.326C99.854 17.3565 100.889 17.382 101.653 17.3999C102.035 17.4089 102.346 17.4158 102.578 17.4205C102.694 17.4229 102.787 17.4246 102.858 17.4257L102.943 17.4269C102.965 17.4271 102.973 17.4271 102.972 17.4271C103.324 17.4271 103.715 17.4371 104.076 17.4463L104.106 17.4471C104.75 17.4635 105.4 17.4795 106.078 17.4664L106.078 17.4664M50.2009 55.7016L106.078 17.4664M50.2009 55.7016C50.2009 50.8981 48.1177 46.6188 45.1999 43.0329C42.2857 39.4513 38.3657 36.3368 34.186 33.739C30.9692 31.7396 27.4929 29.9819 24.0225 28.5152L36.1096 25.9038C37.5901 25.7954 40.0501 25.2141 42.0373 23.3537C42.0174 23.3723 42.0468 23.344 42.16 23.2518C42.2627 23.1683 42.4013 23.059 42.5787 22.9227C42.9334 22.6502 43.3985 22.3039 43.9571 21.896C45.0723 21.0816 46.5028 20.0633 48.0514 18.9738C50.9546 16.9314 54.2267 14.6717 56.511 13.1065C56.5235 13.1035 56.5364 13.1005 56.5498 13.0975C56.7678 13.0484 57.0456 13.0088 57.3428 13.0088L106.155 13.0088C106.155 13.0088 106.155 13.0088 106.155 13.0088M50.2009 55.7016L106.155 13.0088M106.078 17.4664L106.154 17.465C106.864 17.4524 108.256 17.3991 109.391 16.9116C109.905 16.6909 110.181 16.4556 110.328 16.2589C110.441 16.1085 110.644 15.7714 110.644 14.9692C110.644 14.2751 110.464 14.0466 110.4 13.9692C110.284 13.8282 110.024 13.6142 109.483 13.4144C108.306 12.9803 106.893 12.992 106.367 13.0053L106.359 13.0055C106.327 13.0064 106.235 13.0088 106.155 13.0088M106.078 17.4664L106.155 13.0088M39.3035 149.575C40.5768 150.767 50.0917 157.357 54.69 160.503C55.0437 160.669 56.0694 161 57.3428 161L106.155 161C106.178 161 106.216 161.001 106.266 161.002C107.366 161.03 114.644 161.215 114.644 155.04C114.644 148.694 107.653 148.57 106.225 148.544L39.3035 149.575ZM39.3035 149.575C38.0301 148.383 36.2969 148.085 35.5895 148.085L39.3035 149.575Z" fill="#B38FFF" stroke="#B38FFF" stroke-width="8" stroke-linejoin="round"/>
</svg>
