<svg width="124" height="155" viewBox="0 0 124 155" fill="none" xmlns="http://www.w3.org/2000/svg">
<path d="M108.993 11.7544L109.182 11.7544L109.324 11.6294C110.043 10.9953 110.914 9.8522 111.171 8.45765C111.437 7.01982 111.034 5.38806 109.324 3.8794L109.182 3.7544L108.993 3.7544L105.746 3.7544L105.233 3.7544L105.246 4.26728L105.427 11.2673L105.439 11.7544L105.926 11.7544L108.993 11.7544Z" fill="black" stroke="black"/>
<path d="M109.993 12.2544L106.926 12.2544L106.746 3.25439L109.993 3.25439C113.168 6.85439 111.316 10.7544 109.993 12.2544Z" fill="#C00808" stroke="black"/>
<path d="M108.993 150.754L109.182 150.754L109.324 150.629C110.043 149.995 110.914 148.852 111.171 147.458C111.437 146.02 111.034 144.388 109.324 142.879L109.182 142.754L108.993 142.754L105.746 142.754L105.233 142.754L105.246 143.267L105.427 150.267L105.439 150.754L105.926 150.754L108.993 150.754Z" fill="black" stroke="black"/>
<path d="M109.993 151.254L106.926 151.254L106.746 142.254L109.993 142.254C113.168 145.854 111.316 149.754 109.993 151.254Z" fill="#C00808" stroke="black"/>
<path d="M16.9176 66.5684L25.9372 66.5684L26.4678 88.4246L16.9176 88.4246C7.57957 79.6821 13.0267 70.2111 16.9176 66.5684Z" fill="black" stroke="black"/>
<path d="M23.2838 66.5684L32.3034 66.5684L32.834 88.4246L23.2838 88.4246C13.9458 79.6821 19.3929 70.2111 23.2838 66.5684Z" fill="#C00808"/>
<path d="M0.894401 19.3959C0.65837 19.4469 0.492515 19.6593 0.500251 19.9007C0.507987 20.142 0.68711 20.3434 0.925918 20.3791C7.48649 21.3619 16.9726 24.6894 24.8106 29.5609C28.7275 31.9954 32.2105 34.8019 34.7094 37.873C37.1468 40.8685 38.6272 44.0889 38.6982 47.4486C36.0312 49.4025 32.0617 53.0461 28.7525 57.9936C25.3548 63.0734 22.6366 69.5534 22.7703 77.0044C22.6366 84.4554 25.3548 90.9354 28.7525 96.0152C32.0617 100.963 36.0312 104.606 38.6982 106.56C38.6272 109.92 37.1468 113.14 34.7094 116.136C32.2105 119.207 28.7275 122.013 24.8106 124.448C16.9726 129.319 7.48648 132.647 0.925913 133.63C0.687105 133.665 0.507982 133.867 0.500246 134.108C0.49251 134.349 0.658365 134.562 0.894396 134.613L28.4839 140.574C28.5 140.577 28.5161 140.58 28.5324 140.582C28.5514 140.584 28.5704 140.585 28.5895 140.585C29.2155 140.585 30.8096 140.861 31.9618 141.94C32.3074 142.264 33.1695 142.919 34.3033 143.747C35.4497 144.584 36.9049 145.62 38.4622 146.715C41.5772 148.907 45.1073 151.342 47.4076 152.916C47.4146 152.921 47.4216 152.925 47.4288 152.93C47.4446 152.939 47.4611 152.948 47.478 152.956C47.8965 153.152 48.9945 153.5 50.3428 153.5L99.155 153.5C99.1702 153.5 99.1996 153.501 99.2531 153.502L99.2592 153.502C99.8219 153.516 101.993 153.572 104.041 152.816C105.074 152.435 106.103 151.837 106.876 150.898C107.655 149.951 108.144 148.69 108.144 147.04C108.144 145.355 107.678 144.05 106.929 143.051C106.185 142.058 105.187 141.4 104.167 140.962C102.151 140.096 99.9668 140.058 99.243 140.045L99.2338 140.045L99.1646 140.043C98.3733 140.028 97.6291 140.047 96.9943 140.063L96.9914 140.063C96.6057 140.073 96.2646 140.082 95.9716 140.082C95.6657 140.082 93.999 140.123 91.5683 140.183L91.5065 140.184C87.009 140.295 79.8993 140.47 73.745 140.577C72.1269 140.168 69.6594 139.134 67.4927 137.352C65.3039 135.551 63.4477 133.01 63.0424 129.595C62.6389 126.195 64.2396 122.263 66.4975 118.669C68.7382 115.101 71.5658 111.961 73.4853 110.162L111.004 79.9836L119.847 79.9836C119.878 79.9836 119.909 79.9808 119.939 79.9751C120.685 79.8354 122.045 79.2722 122.673 77.9747C122.864 77.9042 123 77.7207 123 77.5056C123 77.3323 122.988 77.1653 122.966 77.0044C122.988 76.8435 123 76.6765 123 76.5032C123 76.288 122.864 76.1046 122.673 76.0341C122.045 74.7365 120.685 74.1733 119.939 74.0337C119.909 74.028 119.878 74.0252 119.847 74.0252L111.004 74.0252L73.4853 43.8468C71.5659 42.0474 68.7382 38.9073 66.4975 35.3403C64.2396 31.7458 62.6389 27.8138 63.0424 24.4142C63.4477 20.9988 65.3039 18.4576 67.4927 16.6571C69.6594 14.8746 72.1269 13.8408 73.745 13.4315C79.8993 13.5385 87.0092 13.7138 91.5067 13.8246L91.5539 13.8258C93.9924 13.8859 95.6651 13.9271 95.9716 13.9271C96.2646 13.9271 96.6057 13.9358 96.9914 13.9456L96.995 13.9457C97.6297 13.9619 98.3736 13.9808 99.1647 13.9655L99.2338 13.9643L99.2429 13.9641C99.9666 13.9513 102.15 13.9126 104.167 13.0464C105.187 12.6085 106.185 11.9504 106.929 10.9575C107.678 9.95883 108.144 8.65368 108.144 6.96918C108.144 5.31923 107.655 4.05823 106.876 3.11095C106.103 2.17163 105.074 1.57404 104.041 1.19274C101.994 0.437239 99.8222 0.492327 99.2593 0.506609L99.2532 0.506764C99.1993 0.50813 99.1702 0.508825 99.1551 0.508824L99.155 0.508824L50.3428 0.508822C48.9945 0.508822 47.8965 0.856792 47.478 1.05271C47.4535 1.06418 47.43 1.07762 47.4076 1.09289C45.1073 2.66667 41.5772 5.10196 38.4622 7.29335C36.9049 8.38891 35.4497 9.42466 34.3033 10.2618C33.1696 11.0897 32.3074 11.7451 31.9618 12.0687C30.8096 13.1473 29.2155 13.4239 28.5895 13.4239C28.554 13.4239 28.5186 13.4276 28.4839 13.4351L0.894401 19.3959Z" fill="#C00808" stroke="black" stroke-linejoin="round"/>
<path d="M70.6966 50.0356L99.1553 76.7401L70.6966 104.051C57.5453 105.467 31.2426 101.988 31.2426 76.7401C31.2426 51.4923 57.5453 48.4172 70.6966 50.0356Z" fill="#E1E1E1" stroke="black"/>
<path d="M70.4838 58.8606L89.6045 76.8253L70.4838 95.1982C61.6478 96.1509 43.9757 93.8102 43.9757 76.8253C43.9757 59.8405 61.6478 57.7718 70.4838 58.8606Z" fill="black" stroke="black"/>
<path d="M59.4878 66.7043L70.6045 76.9005L59.4878 87.3283C54.3506 87.8691 44.0761 86.5406 44.0761 76.9005C44.0761 67.2604 54.3506 66.0863 59.4878 66.7043Z" fill="#A369D1" stroke="black"/>
<path d="M50.0579 68.4128C53.0953 67.0683 56.7586 66.9048 59.2694 67.1824L69.8693 76.9046L59.2694 86.8477C56.7593 87.0864 53.0995 86.8671 50.0636 85.4776C48.5183 84.7703 47.1509 83.7676 46.1696 82.3836C45.1914 81.0039 44.5761 79.2165 44.5761 76.9005C44.5761 74.5844 45.1914 72.8077 46.1682 71.4448C47.148 70.0776 48.5136 69.0964 50.0579 68.4128Z" stroke="#7600D2"/>
<path d="M38.1401 16.8956L20.6314 20.8694L38.1401 28.3204L43.9763 37.7583L58.3017 37.7583L54.0571 22.8564L62.0156 10.9348L49.8126 6.96094L38.1401 16.8956Z" fill="black" stroke="black"/>
<path d="M36.9157 137.778L18.5091 133.676L36.9157 125.985L43.0512 116.242L58.1112 116.242L53.649 131.625L62.0156 143.931L49.1868 148.033L36.9157 137.778Z" fill="black" stroke="black"/>
<path d="M37.3474 133.097L26.0045 131.207L36.9611 126.104L40.3782 120.146L49.5489 119.702L47.3355 128.955L52.8334 136.005L45.1557 138.816L37.3474 133.097Z" fill="#A369D1" stroke="black"/>
<path d="M39.4705 20.9033L28.1276 22.7929L39.0842 27.8962L42.5013 33.854L51.6719 34.298L49.4586 25.0452L54.9565 17.9948L47.2788 15.1842L39.4705 20.9033Z" fill="#A369D1" stroke="black"/>
<path d="M37.4264 132.604L37.5446 132.623L37.6414 132.694L45.2324 138.254L52.0181 135.77L46.9418 129.26L46.793 129.07L46.849 128.836L48.9066 120.234L40.6776 120.632L37.3955 126.355L37.3174 126.491L37.175 126.557L27.6792 130.98L37.4264 132.604Z" stroke="#7600D2"/>
<path d="M39.5495 21.3963L39.6676 21.3766L39.7644 21.3057L47.3555 15.7458L54.1412 18.2299L49.0648 24.7396L48.916 24.9304L48.972 25.1645L51.0297 33.7663L42.8007 33.3679L39.5186 27.6455L39.4404 27.5093L39.298 27.443L29.8023 23.0201L39.5495 21.3963Z" stroke="#7600D2"/>
<path d="M121.86 76.6745C121.886 76.7449 121.926 76.8068 121.977 76.8574C121.974 76.8797 121.97 76.9017 121.967 76.9235C121.958 76.9771 121.958 77.0317 121.967 77.0852C121.97 77.107 121.974 77.1291 121.977 77.1514C121.926 77.202 121.886 77.2639 121.86 77.3342C121.491 78.3465 120.439 78.8505 119.798 78.9836L110.828 78.9836C110.714 78.9836 110.603 79.0226 110.514 79.094L72.8438 109.395C72.8341 109.403 72.8246 109.411 72.8155 109.419C70.8443 111.265 67.9499 114.476 65.6507 118.137C63.3634 121.778 61.6039 125.959 62.0493 129.712C62.4929 133.45 64.5275 136.207 66.8574 138.124C69.1813 140.036 71.8245 141.134 73.5682 141.564C73.6101 141.574 73.6532 141.579 73.6964 141.578C79.8701 141.471 87.0183 141.295 91.5311 141.184C94.0086 141.123 95.6795 141.082 95.9716 141.082C96.2778 141.082 96.6299 141.073 97.0086 141.063L97.0168 141.063C97.6542 141.047 98.3783 141.028 99.1454 141.043L99.2161 141.044C99.9294 141.057 101.945 141.096 103.773 141.881C104.68 142.271 105.518 142.835 106.129 143.651C106.736 144.461 107.144 145.551 107.144 147.04C107.144 148.477 106.724 149.509 106.104 150.263C105.477 151.025 104.618 151.537 103.694 151.878C101.835 152.564 99.8255 152.516 99.2786 152.502C99.2316 152.501 99.1862 152.5 99.155 152.5L50.3428 152.5C49.1881 152.5 48.2608 152.208 47.9362 152.066C45.6375 150.493 42.1317 148.074 39.0376 145.898C37.4822 144.803 36.0325 143.771 34.8931 142.939C33.741 142.098 32.9363 141.483 32.6452 141.21C31.2825 139.934 29.4637 139.6 28.6453 139.585L3.55966 134.166C10.0221 132.796 18.3292 129.654 25.3384 125.297C29.3137 122.826 32.8939 119.951 35.4851 116.767C38.0767 113.582 39.7009 110.059 39.7009 106.307C39.7009 106.146 39.6233 105.995 39.4924 105.901C36.9118 104.049 32.9066 100.427 29.5837 95.4593C26.2623 90.4935 23.639 84.2081 23.7703 77.0135C23.7704 77.0074 23.7704 77.0014 23.7703 76.9953C23.639 69.8007 26.2623 63.5153 29.5837 58.5495C32.9066 53.5816 36.9118 49.9602 39.4924 48.1078C39.6233 48.0139 39.7009 47.8627 39.7009 47.7016C39.7009 43.9501 38.0767 40.427 35.4851 37.2419C32.8939 34.0573 29.3137 31.1824 25.3384 28.7116C18.3292 24.3552 10.0221 21.2129 3.55968 19.8432L28.6453 14.4234C29.4637 14.4087 31.2825 14.0745 32.6452 12.7987C32.9363 12.5262 33.741 11.9107 34.8931 11.0694C36.0325 10.2373 37.4822 9.20543 39.0376 8.11123C42.1317 5.93452 45.6375 3.51578 47.9362 1.94289C48.2608 1.80062 49.1881 1.50882 50.3428 1.50882L99.155 1.50882C99.155 1.50882 99.155 1.50882 99.155 1.50882C99.1847 1.50883 99.2274 1.50774 99.2716 1.50662L99.2785 1.50644C99.8255 1.49258 101.835 1.44465 103.694 2.13089C104.618 2.47185 105.477 2.9842 106.104 3.74612C106.724 4.50009 107.144 5.53164 107.144 6.96918C107.144 8.4576 106.736 9.54764 106.129 10.3578C105.518 11.1737 104.68 11.738 103.773 12.1275C101.945 12.9124 99.9294 12.9518 99.2161 12.9644L99.1454 12.9657C98.3783 12.9805 97.6542 12.9622 97.0168 12.9459L97.0119 12.9458C96.6319 12.9361 96.2787 12.9271 95.9716 12.9271C95.6795 12.9271 94.0087 12.886 91.5313 12.8249L91.5306 12.8249C87.0177 12.7137 79.8698 12.5375 73.6964 12.4305C73.6532 12.4297 73.6101 12.4346 73.5682 12.4449C71.8245 12.8745 69.1813 13.9731 66.8574 15.8848C64.5275 17.8014 62.4929 20.5588 62.0493 24.2963C61.6039 28.0497 63.3634 32.2309 65.6507 35.8722C67.9499 39.5324 70.8443 42.7441 72.8155 44.5895C72.8246 44.5981 72.8341 44.6063 72.8438 44.6141L110.514 74.9148C110.603 74.9862 110.714 75.0252 110.828 75.0252L119.798 75.0252C120.439 75.1583 121.491 75.6623 121.86 76.6745Z" stroke="#7B0202" stroke-linejoin="round"/>
</svg>
