<svg width="128" height="159" viewBox="0 0 128 159" fill="none" xmlns="http://www.w3.org/2000/svg">
<g opacity="0.5">
<path d="M106.427 13.293L106.465 14.7544L107.926 14.7544L110.993 14.7544L111.56 14.7544L111.985 14.3794C112.819 13.6439 113.846 12.3145 114.155 10.6392C114.488 8.83402 113.942 6.85539 111.985 5.1294L111.56 4.7544L110.993 4.7544L107.746 4.7544L106.207 4.7544L106.247 6.29304L106.427 13.293Z" fill="white" stroke="white" stroke-width="3"/>
<path d="M107.427 14.2845L107.456 15.7544L108.926 15.7544L111.993 15.7544L112.67 15.7544L113.118 15.2465C113.94 14.3147 114.885 12.7022 115.165 10.7551C115.454 8.7419 115.018 6.41712 113.118 4.26225L112.67 3.75439L111.993 3.75439L108.746 3.75439L107.216 3.75439L107.246 5.28445L107.427 14.2845Z" fill="white" stroke="white" stroke-width="3"/>
<path d="M106.427 152.293L106.465 153.754L107.926 153.754L110.993 153.754L111.56 153.754L111.985 153.379C112.819 152.644 113.846 151.314 114.155 149.639C114.488 147.834 113.942 145.855 111.985 144.129L111.56 143.754L110.993 143.754L107.746 143.754L106.207 143.754L106.247 145.293L106.427 152.293Z" fill="white" stroke="white" stroke-width="3"/>
<path d="M107.427 153.284L107.456 154.754L108.926 154.754L111.993 154.754L112.67 154.754L113.118 154.247C113.94 153.315 114.885 151.702 115.165 149.755C115.454 147.742 115.018 145.417 113.118 143.262L112.67 142.754L111.993 142.754L108.746 142.754L107.216 142.754L107.246 144.284L107.427 153.284Z" fill="white" stroke="white" stroke-width="3"/>
<path d="M29.4368 68.532L29.4012 67.0684L27.9372 67.0684L18.9176 67.0684L18.325 67.0684L17.8924 67.4734C15.7748 69.4559 13.2293 73.0114 12.4789 77.3271C11.7092 81.7538 12.8637 86.8116 17.8924 91.5196L18.325 91.9246L18.9176 91.9246L28.4678 91.9246L30.0046 91.9246L29.9673 90.3882L29.4368 68.532Z" fill="white" stroke="white" stroke-width="3"/>
<path d="M25.2838 68.5684L34.3034 68.5684L34.834 90.4246L25.2838 90.4246C15.9458 81.6821 21.3929 72.2111 25.2838 68.5684Z" fill="white"/>
<path d="M99.0041 142.563L98.9659 141.063L98.9762 141.063C99.6075 141.047 100.37 141.028 101.183 141.043M99.0041 142.563L101.183 141.043M99.0041 142.563L98.9659 141.064C98.5764 141.073 98.2492 141.082 97.9716 141.082C97.6528 141.082 95.9961 141.122 93.618 141.181L93.4818 141.184C89.017 141.294 81.9825 141.468 75.8642 141.575C74.369 141.176 72.1112 140.211 70.128 138.579C68.0803 136.895 66.4025 134.57 66.0354 131.477C65.6739 128.431 67.1159 124.748 69.3443 121.2C71.5213 117.735 74.2742 114.673 76.1418 112.917L113.356 82.9836L121.847 82.9836C121.94 82.9836 122.032 82.975 122.123 82.958C122.973 82.7988 124.567 82.1816 125.43 80.6823C125.777 80.4075 126 79.9825 126 79.5056C126 79.3353 125.991 79.1681 125.973 79.0044C125.991 78.8406 126 78.6735 126 78.5032C126 78.0262 125.777 77.6013 125.43 77.3265C124.567 75.8272 122.973 75.21 122.123 75.0508C122.032 75.0338 121.94 75.0252 121.847 75.0252L113.356 75.0252L76.1418 45.0915C74.2742 43.3361 71.5213 40.274 69.3443 36.8083C67.1159 33.2608 65.6739 29.5778 66.0354 26.532C66.4025 23.4387 68.0803 21.1138 70.128 19.4293C72.1113 17.7978 74.369 16.8329 75.8642 16.4337C81.9826 16.5409 89.0172 16.7143 93.4821 16.8243L93.6135 16.8276C95.994 16.8863 97.6526 16.9271 97.9716 16.9271C98.2493 16.9271 98.5765 16.9354 98.9659 16.9453L98.9765 16.9456C99.608 16.9616 100.37 16.9811 101.184 16.9653L101.184 16.9653L101.252 16.9641L101.276 16.9637C102.02 16.9506 104.364 16.9094 106.562 15.9652C107.694 15.4791 108.853 14.727 109.73 13.5572C110.619 12.37 111.144 10.8497 111.144 8.96918C111.144 7.10682 110.586 5.61638 109.648 4.47579C108.73 3.35906 107.529 2.67622 106.387 2.25459C104.159 1.43234 101.833 1.49166 101.245 1.50666L101.228 1.50709L101.168 1.50853L101.153 1.50881C101.153 1.50882 101.153 1.50882 101.153 1.50882L52.3428 1.50882C50.8446 1.50882 49.6022 1.89042 49.054 2.14703C48.9805 2.18144 48.9099 2.22175 48.843 2.26757C46.5404 3.84293 43.0064 6.28082 39.8868 8.47546C38.3276 9.57238 36.8669 10.612 35.7136 11.4542C34.5981 12.2688 33.6785 12.964 33.2783 13.3387C32.3686 14.1904 31.0526 14.4239 30.5895 14.4239C30.483 14.4239 30.3768 14.4352 30.2727 14.4577L2.68323 20.4185C1.97514 20.5715 1.47755 21.2087 1.50076 21.9327C1.52398 22.6568 2.06134 23.2608 2.77778 23.3681C9.19528 24.3294 18.5531 27.6061 26.2827 32.4103C30.1412 34.8084 33.5271 37.5464 35.9338 40.5042C38.151 43.2291 39.4815 46.0687 39.676 48.9638C36.9452 51.0404 33.1302 54.6401 29.9213 59.4376C26.4486 64.6295 23.6365 71.3009 23.7701 79.0044C23.6365 86.7079 26.4486 93.3793 29.9213 98.5712C33.1302 103.369 36.9452 106.968 39.676 109.045M99.0041 142.563L39.676 109.045M101.183 141.043C101.184 141.043 101.184 141.043 101.184 141.043M101.183 141.043L101.184 141.043M101.184 141.043L101.251 141.045L101.252 141.045L101.276 141.045C102.02 141.058 104.364 141.099 106.562 142.044C107.694 142.53 108.853 143.282 109.73 144.452C110.619 145.639 111.144 147.159 111.144 149.04C111.144 150.902 110.586 152.392 109.648 153.533C108.73 154.65 107.529 155.333 106.387 155.754C104.159 156.576 101.833 156.517 101.245 156.502L101.228 156.502L101.168 156.5L101.155 156.5L101.154 156.5C101.151 156.5 101.151 156.5 101.153 156.5L52.3428 156.5C50.8446 156.5 49.6022 156.118 49.054 155.862C48.9805 155.827 48.9099 155.787 48.843 155.741C46.5403 154.166 43.0064 151.728 39.8868 149.533C38.3276 148.436 36.8669 147.397 35.7136 146.555C34.5981 145.74 33.6785 145.045 33.2783 144.67C32.3686 143.818 31.0526 143.585 30.5895 143.585C30.483 143.585 30.3768 143.574 30.2727 143.551L2.68322 137.59C1.97513 137.437 1.47755 136.8 1.50076 136.076C1.52397 135.352 2.06133 134.748 2.77777 134.641C9.19528 133.679 18.5531 130.403 26.2827 125.599C30.1412 123.2 33.5271 120.462 35.9338 117.505C38.151 114.78 39.4815 111.94 39.676 109.045M101.184 141.043L39.676 109.045" fill="white" stroke="white" stroke-width="3" stroke-linejoin="round"/>
<path d="M102.194 79.8223L103.334 78.7278L102.182 77.6462L73.723 50.9418L73.3659 50.6067L72.8798 50.5469C66.134 49.7167 55.97 50.0741 47.4191 53.9466C43.1227 55.8923 39.188 58.7471 36.3293 62.8279C33.4629 66.9197 31.7426 72.1538 31.7426 78.7401C31.7426 85.3265 33.4629 90.5827 36.325 94.7124C39.1794 98.831 43.1087 101.743 47.4018 103.753C55.9477 107.755 66.1093 108.269 72.8572 107.542L73.366 107.488L73.7352 107.133L102.194 79.8223Z" fill="white" stroke="white" stroke-width="3"/>
<path d="M92.6438 79.9069L93.7821 78.8131L92.6316 77.7322L73.5109 59.7674L73.1537 59.4318L72.6673 59.3718C68.0788 58.8064 61.151 59.0446 55.2968 61.6992C52.3488 63.036 49.6278 65.0071 47.6459 67.8399C45.6564 70.6836 44.4757 74.3052 44.4757 78.8253C44.4757 83.3457 45.6564 86.9811 47.6416 89.8493C49.6192 92.7064 52.3348 94.7159 55.2795 96.0965C61.1286 98.8388 68.0541 99.1845 72.6446 98.6895L73.1538 98.6346L73.5231 98.2798L92.6438 79.9069Z" fill="white" stroke="white" stroke-width="3"/>
<path d="M73.6307 79.9945L74.8102 78.8881L73.6184 77.7951L62.5017 67.5988L62.1461 67.2726L61.667 67.215C58.9325 66.8861 54.7854 67.0183 51.2483 68.584C49.4597 69.3758 47.777 70.5573 46.5425 72.2798C45.2989 74.0151 44.5761 76.2087 44.5761 78.9005C44.5761 81.5925 45.2988 83.7925 46.5381 85.5404C47.7683 87.2754 49.4457 88.4789 51.2312 89.2961C54.7635 90.9128 58.9085 91.1081 61.6449 90.8201L62.1463 90.7673L62.5141 90.4223L73.6307 79.9945Z" fill="white" stroke="white" stroke-width="3"/>
<path d="M73.6307 79.9945L74.8102 78.8881L73.6184 77.7951L62.5017 67.5988L62.1461 67.2726L61.667 67.215C58.9325 66.8861 54.7854 67.0183 51.2483 68.584C49.4597 69.3758 47.777 70.5573 46.5425 72.2798C45.2989 74.0151 44.5761 76.2087 44.5761 78.9005C44.5761 81.5925 45.2988 83.7925 46.5381 85.5404C47.7683 87.2754 49.4457 88.4789 51.2312 89.2961C54.7635 90.9128 58.9085 91.1081 61.6449 90.8201L62.1463 90.7673L62.5141 90.4223L73.6307 79.9945Z" stroke="white" stroke-width="3"/>
<path d="M22.2993 21.4066L17.7758 22.4333L22.044 24.2497L39.1147 31.5142L44.7005 40.5473L45.1403 41.2583L45.9763 41.2583L60.3017 41.2583L62.2886 41.2583L61.7443 39.3474L57.6897 25.1124L65.2632 13.7676L66.3622 12.1214L64.4801 11.5085L52.277 7.53466L51.4793 7.27487L50.8404 7.81866L39.4486 17.5144L22.2993 21.4066Z" fill="white" stroke="white" stroke-width="3"/>
<path d="M20.1828 137.14L15.5732 136.113L19.9308 134.292L37.8994 126.784L43.782 117.443L44.2232 116.742L45.0512 116.742L60.1112 116.742L62.1081 116.742L61.5518 118.66L57.2862 133.365L65.2561 145.088L66.3851 146.748L64.4725 147.36L51.6436 151.462L50.8579 151.713L50.2249 151.184L38.2336 141.163L20.1828 137.14Z" fill="white" stroke="white" stroke-width="3"/>
<path d="M27.7675 134.686L22.9803 133.889L27.363 131.847L37.8924 126.943L41.0751 121.394L41.48 120.688L42.2955 120.648L51.4661 120.204L53.4756 120.107L53.0084 122.06L50.963 130.61L56.0146 137.088L57.2793 138.71L55.3579 139.414L47.6803 142.224L46.9257 142.5L46.274 142.023L38.7561 136.517L27.7675 134.686Z" fill="white" stroke="white" stroke-width="3"/>
<path d="M29.8906 23.3139L25.1034 24.1114L29.4861 26.1527L40.0154 31.0571L43.1982 36.6062L43.6031 37.3122L44.4185 37.3517L53.5892 37.7957L55.5986 37.893L55.1314 35.9401L53.0861 27.3895L58.1377 20.9115L59.4023 19.2898L57.481 18.5865L49.8033 15.7758L49.0488 15.4996L48.3971 15.9769L40.8792 21.4833L29.8906 23.3139Z" fill="white" stroke="white" stroke-width="3"/>
<path d="M27.7675 134.686L22.9803 133.889L27.363 131.847L37.8924 126.943L41.0751 121.394L41.48 120.688L42.2955 120.648L51.4661 120.204L53.4756 120.107L53.0084 122.06L50.963 130.61L56.0146 137.088L57.2793 138.71L55.3579 139.414L47.6803 142.224L46.9257 142.5L46.274 142.023L38.7561 136.517L27.7675 134.686Z" stroke="white" stroke-width="3"/>
<path d="M29.8906 23.3139L25.1034 24.1114L29.4861 26.1527L40.0154 31.0571L43.1982 36.6062L43.6031 37.3122L44.4185 37.3517L53.5892 37.7957L55.5986 37.893L55.1314 35.9401L53.0861 27.3895L58.1377 20.9115L59.4023 19.2898L57.481 18.5865L49.8033 15.7758L49.0488 15.4996L48.3971 15.9769L40.8792 21.4833L29.8906 23.3139Z" stroke="white" stroke-width="3"/>
<path d="M99.0041 142.563L98.9659 141.063L98.9762 141.063C99.6075 141.047 100.37 141.028 101.183 141.043M99.0041 142.563L101.183 141.043M99.0041 142.563L98.9659 141.064C98.5764 141.073 98.2492 141.082 97.9716 141.082C97.6528 141.082 95.9961 141.122 93.618 141.181L93.4818 141.184C89.017 141.294 81.9825 141.468 75.8642 141.575C74.369 141.176 72.1112 140.211 70.128 138.579C68.0803 136.895 66.4025 134.57 66.0354 131.477C65.6739 128.431 67.1159 124.748 69.3443 121.2C71.5213 117.735 74.2742 114.673 76.1418 112.917L113.356 82.9836L121.847 82.9836C121.94 82.9836 122.032 82.975 122.123 82.958C122.973 82.7988 124.567 82.1816 125.43 80.6823C125.777 80.4075 126 79.9825 126 79.5056C126 79.3353 125.991 79.1681 125.973 79.0044C125.991 78.8406 126 78.6735 126 78.5032C126 78.0262 125.777 77.6013 125.43 77.3265C124.567 75.8272 122.973 75.21 122.123 75.0508C122.032 75.0338 121.94 75.0252 121.847 75.0252L113.356 75.0252L76.1418 45.0915C74.2742 43.3361 71.5213 40.274 69.3443 36.8083C67.1159 33.2608 65.6739 29.5778 66.0354 26.532C66.4025 23.4387 68.0803 21.1138 70.128 19.4293C72.1113 17.7978 74.369 16.8329 75.8642 16.4337C81.9826 16.5409 89.0172 16.7143 93.4821 16.8243L93.6135 16.8276C95.994 16.8863 97.6526 16.9271 97.9716 16.9271C98.2493 16.9271 98.5765 16.9354 98.9659 16.9453L98.9765 16.9456C99.608 16.9616 100.37 16.9811 101.184 16.9653L101.184 16.9653L101.252 16.9641L101.276 16.9637C102.02 16.9506 104.364 16.9094 106.562 15.9652C107.694 15.4791 108.853 14.727 109.73 13.5572C110.619 12.37 111.144 10.8497 111.144 8.96918C111.144 7.10682 110.586 5.61638 109.648 4.47579C108.73 3.35906 107.529 2.67622 106.387 2.25459C104.159 1.43234 101.833 1.49166 101.245 1.50666L101.228 1.50709L101.168 1.50853L101.153 1.50881C101.153 1.50882 101.153 1.50882 101.153 1.50882L52.3428 1.50882C50.8446 1.50882 49.6022 1.89042 49.054 2.14703C48.9805 2.18144 48.9099 2.22175 48.843 2.26757C46.5404 3.84293 43.0064 6.28082 39.8868 8.47546C38.3276 9.57238 36.8669 10.612 35.7136 11.4542C34.5981 12.2688 33.6785 12.964 33.2783 13.3387C32.3686 14.1904 31.0526 14.4239 30.5895 14.4239C30.483 14.4239 30.3768 14.4352 30.2727 14.4577L2.68323 20.4185C1.97514 20.5715 1.47755 21.2087 1.50076 21.9327C1.52398 22.6568 2.06134 23.2608 2.77778 23.3681C9.19528 24.3294 18.5531 27.6061 26.2827 32.4103C30.1412 34.8084 33.5271 37.5464 35.9338 40.5042C38.151 43.2291 39.4815 46.0687 39.676 48.9638C36.9452 51.0404 33.1302 54.6401 29.9213 59.4376C26.4486 64.6295 23.6365 71.3009 23.7701 79.0044C23.6365 86.7079 26.4486 93.3793 29.9213 98.5712C33.1302 103.369 36.9452 106.968 39.676 109.045M99.0041 142.563L39.676 109.045M101.183 141.043C101.184 141.043 101.184 141.043 101.184 141.043M101.183 141.043L101.184 141.043M101.184 141.043L101.251 141.045L101.252 141.045L101.276 141.045C102.02 141.058 104.364 141.099 106.562 142.044C107.694 142.53 108.853 143.282 109.73 144.452C110.619 145.639 111.144 147.159 111.144 149.04C111.144 150.902 110.586 152.392 109.648 153.533C108.73 154.65 107.529 155.333 106.387 155.754C104.159 156.576 101.833 156.517 101.245 156.502L101.228 156.502L101.168 156.5L101.155 156.5L101.154 156.5C101.151 156.5 101.151 156.5 101.153 156.5L52.3428 156.5C50.8446 156.5 49.6022 156.118 49.054 155.862C48.9805 155.827 48.9099 155.787 48.843 155.741C46.5403 154.166 43.0064 151.728 39.8868 149.533C38.3276 148.436 36.8669 147.397 35.7136 146.555C34.5981 145.74 33.6785 145.045 33.2783 144.67C32.3686 143.818 31.0526 143.585 30.5895 143.585C30.483 143.585 30.3768 143.574 30.2727 143.551L2.68322 137.59C1.97513 137.437 1.47755 136.8 1.50076 136.076C1.52397 135.352 2.06133 134.748 2.77777 134.641C9.19528 133.679 18.5531 130.403 26.2827 125.599C30.1412 123.2 33.5271 120.462 35.9338 117.505C38.151 114.78 39.4815 111.94 39.676 109.045M101.184 141.043L39.676 109.045" stroke="white" stroke-width="3" stroke-linejoin="round"/>
</g>
</svg>
