<svg width="46" height="16" viewBox="0 0 46 16" fill="none" xmlns="http://www.w3.org/2000/svg">
<path d="M45.056 8.00254C45.4623 9.06078 44.9495 10.2535 43.8871 10.6487C30.3387 15.6881 15.5306 15.8297 1.88567 11.0502C0.81613 10.6756 0.280484 9.49341 0.665886 8.42771L2.71465 2.7625C3.11256 1.66222 4.33687 1.10883 5.44409 1.48698C16.7307 5.34173 28.9341 5.22491 40.1427 1.15481C41.2422 0.755577 42.4765 1.28492 42.8958 2.37687L45.056 8.00254Z" fill="#78C2EB"/>
<path d="M40.1427 1.15481L39.9721 0.684836L40.1427 1.15481ZM42.8958 2.37687L43.3626 2.19764L42.8958 2.37687ZM2.71465 2.7625L3.18485 2.93254L2.71465 2.7625ZM5.44409 1.48698L5.60569 1.01382L5.60569 1.01382L5.44409 1.48698ZM1.88567 11.0502L2.05096 10.5783L1.88567 11.0502ZM0.665886 8.42771L0.195688 8.25766L0.665886 8.42771ZM43.8871 10.6487L44.0614 11.1173L43.8871 10.6487ZM45.056 8.00254L44.5892 8.18177L45.056 8.00254ZM43.7128 10.1801C30.2737 15.1788 15.5858 15.3192 2.05096 10.5783L1.72038 11.5221C15.4754 16.3401 30.4036 16.1975 44.0614 11.1173L43.7128 10.1801ZM1.13608 8.59775L3.18485 2.93254L2.24445 2.59246L0.195688 8.25766L1.13608 8.59775ZM5.28249 1.96015C16.677 5.85173 28.9976 5.7338 40.3134 1.62478L39.9721 0.684836C28.8706 4.71602 16.7845 4.83173 5.60569 1.01382L5.28249 1.96015ZM42.4291 2.5561L44.5892 8.18177L45.5227 7.82331L43.3626 2.19764L42.4291 2.5561ZM40.3134 1.62478C41.1691 1.31407 42.1122 1.7308 42.4291 2.5561L43.3626 2.19764C42.8409 0.839039 41.3153 0.19709 39.9721 0.684836L40.3134 1.62478ZM3.18485 2.93254C3.48559 2.10095 4.42076 1.66584 5.28249 1.96015L5.60569 1.01382C4.25299 0.551823 2.73953 1.2235 2.24445 2.59246L3.18485 2.93254ZM2.05096 10.5783C1.25381 10.2991 0.841652 9.4119 1.13608 8.59775L0.195688 8.25766C-0.280683 9.57492 0.378447 11.052 1.72038 11.5221L2.05096 10.5783ZM44.0614 11.1173C45.3944 10.6215 46.025 9.13134 45.5227 7.82331L44.5892 8.18177C44.8996 8.99023 44.5046 9.88553 43.7128 10.1801L44.0614 11.1173Z" fill="black"/>
<path d="M42.1491 6.80694C42.5108 7.88316 41.9458 9.05472 40.865 9.40255C29.1609 13.1692 16.6492 13.3624 4.83532 9.95875C3.74416 9.64439 3.14325 8.49058 3.4719 7.40365L3.85942 6.12201C4.19739 5.00427 5.38657 4.3858 6.51007 4.70407C17.179 7.72633 28.458 7.55228 39.0293 4.20225C40.1426 3.84945 41.3504 4.43115 41.7225 5.53813L42.1491 6.80694Z" fill="#8BCDF1"/>
</svg>
