<svg width="54" height="23" viewBox="0 0 54 23" fill="none" xmlns="http://www.w3.org/2000/svg">
<g filter="url(#filter0_d_27_47)">
<path d="M49.109 12.0414C49.5007 13.1051 48.9716 14.2907 47.9038 14.6712C34.2873 19.5237 19.4787 19.4614 5.90085 14.4945C4.83657 14.1052 4.31724 12.9158 4.71728 11.8555L6.84383 6.21902C7.25684 5.12432 8.48866 4.58783 9.59057 4.98119C20.8231 8.99093 33.0269 9.0421 44.2905 5.12667C45.3953 4.7426 46.6223 5.28889 47.0265 6.38651L49.109 12.0414Z" fill="#78C2EB"/>
<path d="M44.2905 5.12667L44.1263 4.65439L44.1263 4.65439L44.2905 5.12667ZM47.0265 6.38651L47.4957 6.21372L47.4957 6.21372L47.0265 6.38651ZM6.84383 6.21902L7.31164 6.39552L6.84383 6.21902ZM9.59057 4.98119L9.75867 4.51029L9.75867 4.51029L9.59057 4.98119ZM5.90085 14.4945L6.07262 14.0249L6.07262 14.0249L5.90085 14.4945ZM4.71728 11.8555L4.24947 11.679L4.71728 11.8555ZM47.9038 14.6712L48.0716 15.1422L47.9038 14.6712ZM49.109 12.0414L48.6398 12.2142L48.6398 12.2142L49.109 12.0414ZM47.736 14.2002C34.2294 19.0135 19.5409 18.9517 6.07262 14.0249L5.72908 14.9641C19.4165 19.971 34.3452 20.0338 48.0716 15.1422L47.736 14.2002ZM5.18509 12.032L7.31164 6.39552L6.37602 6.04252L4.24947 11.679L5.18509 12.032ZM9.42247 5.45208C20.7623 9.50014 33.0834 9.55181 44.4546 5.59894L44.1263 4.65439C32.9704 8.53238 20.8838 8.48171 9.75867 4.51029L9.42247 5.45208ZM46.5573 6.5593L48.6398 12.2142L49.5782 11.8686L47.4957 6.21372L46.5573 6.5593ZM44.4546 5.59894C45.3145 5.30003 46.2518 5.72971 46.5573 6.5593L47.4957 6.21372C46.9928 4.84806 45.4761 4.18518 44.1263 4.65439L44.4546 5.59894ZM7.31164 6.39552C7.6238 5.56814 8.56487 5.14594 9.42247 5.45208L9.75867 4.51029C8.41245 4.02972 6.88989 4.6805 6.37602 6.04252L7.31164 6.39552ZM6.07262 14.0249C5.27939 13.7348 4.87948 12.842 5.18509 12.032L4.24947 11.679C3.75501 12.9896 4.39374 14.4756 5.72908 14.9641L6.07262 14.0249ZM48.0716 15.1422C49.4114 14.6647 50.0624 13.1834 49.5782 11.8686L48.6398 12.2142C48.9391 13.0268 48.5318 13.9166 47.736 14.2002L48.0716 15.1422Z" fill="black"/>
<path d="M46.2193 10.8059C46.5662 11.887 45.9851 13.0507 44.8996 13.3836C33.1448 16.9888 20.6317 17.0097 8.86571 13.4438C7.77898 13.1144 7.19401 11.9525 7.53759 10.8702L7.94272 9.59397C8.29603 8.481 9.49362 7.87895 10.6126 8.21265C21.239 11.3815 32.5193 11.3627 43.1357 8.1585C44.2537 7.82106 45.4534 8.41932 45.8103 9.53132L46.2193 10.8059Z" fill="#8BCDF1"/>
</g>
<defs>
<filter id="filter0_d_27_47" x="0.0828247" y="0.352905" width="53.6549" height="22.4128" filterUnits="userSpaceOnUse" color-interpolation-filters="sRGB">
<feFlood flood-opacity="0" result="BackgroundImageFix"/>
<feColorMatrix in="SourceAlpha" type="matrix" values="0 0 0 0 0 0 0 0 0 0 0 0 0 0 0 0 0 0 127 0" result="hardAlpha"/>
<feOffset/>
<feGaussianBlur stdDeviation="2"/>
<feComposite in2="hardAlpha" operator="out"/>
<feColorMatrix type="matrix" values="0 0 0 0 0.545098 0 0 0 0 0.803922 0 0 0 0 0.945098 0 0 0 1 0"/>
<feBlend mode="normal" in2="BackgroundImageFix" result="effect1_dropShadow_27_47"/>
<feBlend mode="normal" in="SourceGraphic" in2="effect1_dropShadow_27_47" result="shape"/>
</filter>
</defs>
</svg>
