<svg width="126" height="157" viewBox="0 0 126 157" fill="none" xmlns="http://www.w3.org/2000/svg">
<path d="M105.927 12.2802L105.952 13.2544L106.926 13.2544L109.993 13.2544L110.371 13.2544L110.655 13.0044C111.431 12.3196 112.38 11.0833 112.663 9.54841C112.962 7.92692 112.488 6.12172 110.655 4.5044L110.371 4.2544L109.993 4.2544L106.746 4.2544L105.72 4.2544L105.746 5.28016L105.927 12.2802Z" fill="#E1E1E1" stroke="#E1E1E1" stroke-width="2"/>
<path d="M110.993 13.2544L107.926 13.2544L107.746 4.25439L110.993 4.25439C114.168 7.85439 112.316 11.7544 110.993 13.2544Z" fill="#E1E1E1" stroke="#E1E1E1" stroke-width="2"/>
<path d="M105.927 151.28L105.952 152.254L106.926 152.254L109.993 152.254L110.371 152.254L110.655 152.004C111.431 151.32 112.38 150.083 112.663 148.548C112.962 146.927 112.488 145.122 110.655 143.504L110.371 143.254L109.993 143.254L106.746 143.254L105.72 143.254L105.746 144.28L105.927 151.28Z" fill="#E1E1E1" stroke="#E1E1E1" stroke-width="2"/>
<path d="M110.993 152.254L107.926 152.254L107.746 143.254L110.993 143.254C114.168 146.854 112.316 150.754 110.993 152.254Z" fill="#E1E1E1" stroke="#E1E1E1" stroke-width="2"/>
<path d="M17.9177 67.5684L26.9373 67.5684L27.4679 89.4246L17.9177 89.4246C8.57969 80.6821 14.0268 71.2111 17.9177 67.5684Z" fill="#E1E1E1" stroke="#E1E1E1"/>
<path d="M24.2835 67.5684L33.3032 67.5684L33.8337 89.4246L24.2835 89.4246C14.9455 80.6821 20.3927 71.2111 24.2835 67.5684Z" fill="#E1E1E1"/>
<path d="M100.243 140.545L100.174 140.543C99.3718 140.528 98.6184 140.547 97.9853 140.563L97.9786 140.563C97.5911 140.573 97.2569 140.582 96.9716 140.582C96.6588 140.582 94.9927 140.623 92.583 140.682L92.4942 140.684L92.4906 140.684C88.009 140.795 80.9387 140.969 74.8038 141.076C73.2473 140.672 70.8851 139.672 68.8103 137.966C66.6921 136.223 64.9251 133.79 64.5389 130.536C64.1564 127.313 65.6778 123.505 67.9209 119.934C70.1297 116.418 72.92 113.317 74.8134 111.54L112.18 81.4836L120.847 81.4836C120.909 81.4836 120.971 81.4779 121.031 81.4665C121.826 81.3178 123.296 80.7321 124.047 79.343C124.32 79.1645 124.5 78.8561 124.5 78.5056C124.5 78.3341 124.49 78.167 124.47 78.0044C124.49 77.8418 124.5 77.6747 124.5 77.5032C124.5 77.1527 124.32 76.8443 124.047 76.6657C123.296 75.2767 121.826 74.691 121.031 74.5423C120.971 74.5309 120.909 74.5252 120.847 74.5252L112.18 74.5252L74.8135 44.4691C72.92 42.6917 70.1297 39.5906 67.9209 36.0743C65.6778 32.5033 64.1564 28.6958 64.5389 25.4731C64.9251 22.2188 66.6921 19.7857 68.8103 18.0432C70.8851 16.3365 73.2473 15.337 74.8037 14.9326C80.9404 15.0397 88.013 15.214 92.4944 15.3245L92.5851 15.3267C94.9937 15.3861 96.6589 15.4271 96.9716 15.4271C97.2569 15.4271 97.5911 15.4356 97.9786 15.4454L97.9859 15.4456C98.6189 15.4618 99.3721 15.4809 100.174 15.4654L100.174 15.4654L100.243 15.4642L100.26 15.4639C100.994 15.4509 103.257 15.411 105.365 14.5058C106.44 14.0438 107.519 13.3387 108.33 12.2573C109.149 11.1644 109.644 9.75171 109.644 7.96918C109.644 6.21303 109.121 4.8373 108.262 3.79337C107.417 2.76534 106.302 2.12513 105.214 1.72367C103.076 0.934827 100.828 0.991995 100.252 1.00663L100.241 1.00692L100.179 1.00842L100.161 1.00876C100.157 1.00882 100.155 1.00882 100.155 1.00882L51.3428 1.00882C49.9196 1.00882 48.7494 1.37361 48.266 1.59987C48.217 1.62281 48.1699 1.64968 48.1253 1.68023C45.8238 3.2548 42.2918 5.69139 39.1745 7.88441C37.6162 8.98064 36.1583 10.0183 35.0085 10.858C33.8838 11.6792 32.9929 12.3546 32.62 12.7037C31.5891 13.6689 30.134 13.9239 29.5895 13.9239C29.5185 13.9239 29.4477 13.9314 29.3783 13.9464L1.78882 19.9072C1.31676 20.0092 0.985038 20.434 1.00051 20.9167C1.01598 21.3994 1.37423 21.8021 1.85185 21.8736C8.34089 22.8456 17.7628 26.1478 25.5466 30.9856C29.4343 33.4019 32.8688 36.1742 35.3216 39.1886C37.6497 42.0498 39.0542 45.0784 39.19 48.2026C36.4873 50.2209 32.5958 53.8434 29.3369 58.7156C25.9017 63.8515 23.1365 70.4272 23.2702 78.0044C23.1365 85.5816 25.9017 92.1573 29.3369 97.2932C32.5958 102.165 36.4873 105.788 39.19 107.806C39.0541 110.93 37.6497 113.959 35.3216 116.82C32.8688 119.835 29.4343 122.607 25.5466 125.023C17.7628 129.861 8.34088 133.163 1.85185 134.135C1.37422 134.207 1.01598 134.609 1.00051 135.092C0.985033 135.575 1.31675 136 1.78881 136.102L29.3783 142.062C29.4477 142.077 29.5185 142.085 29.5895 142.085C30.134 142.085 31.5891 142.34 32.62 143.305C32.9929 143.654 33.8838 144.33 35.0084 145.151C36.1583 145.99 37.6162 147.028 39.1745 148.124C42.2918 150.317 45.8238 152.754 48.1253 154.329C48.1699 154.359 48.217 154.386 48.266 154.409C48.7493 154.635 49.9196 155 51.3428 155L100.155 155C100.154 155 100.156 155 100.161 155L100.179 155L100.241 155.002L100.252 155.002C100.828 155.017 103.076 155.074 105.214 154.285C106.302 153.884 107.417 153.243 108.262 152.215C109.121 151.171 109.644 149.796 109.644 148.04C109.644 146.257 109.149 144.844 108.33 143.751C107.519 142.67 106.44 141.965 105.365 141.503C103.257 140.598 100.994 140.558 100.26 140.545L100.243 140.545Z" fill="#E1E1E1" stroke="#E1E1E1" stroke-width="2" stroke-linejoin="round"/>
<path d="M71.6964 51.0356L100.155 77.7401L71.6964 105.051C58.545 106.467 32.2424 102.988 32.2424 77.7401C32.2424 52.4923 58.545 49.4172 71.6964 51.0356Z" fill="#E1E1E1" stroke="#E1E1E1"/>
<path d="M71.4841 59.8606L90.6047 77.8253L71.4841 96.1982C62.648 97.1509 44.9759 94.8102 44.9759 77.8253C44.9759 60.8405 62.648 58.7718 71.4841 59.8606Z" fill="#E1E1E1" stroke="#E1E1E1"/>
<path d="M60.4881 67.7043L71.6047 77.9005L60.4881 88.3283C55.3508 88.8691 45.0764 87.5406 45.0764 77.9005C45.0764 68.2604 55.3508 67.0863 60.4881 67.7043Z" fill="#E1E1E1" stroke="#E1E1E1"/>
<path d="M51.2605 69.87C54.1282 68.6006 57.605 68.4156 60.0531 68.6623L70.1343 77.9087L60.0532 87.3652C57.6068 87.5728 54.1369 87.3342 51.2719 86.0229C49.7867 85.3431 48.4968 84.3906 47.5778 83.0944C46.6648 81.8068 46.0764 80.1225 46.0764 77.9005C46.0764 75.6784 46.6648 74.0059 47.5748 72.7361C48.491 71.4576 49.7773 70.5266 51.2605 69.87Z" stroke="#E1E1E1" stroke-width="2"/>
<path d="M39.1398 17.8956L21.6311 21.8694L39.1398 29.3204L44.9761 38.7583L59.3014 38.7583L55.0569 23.8564L63.0154 11.9348L50.8123 7.96094L39.1398 17.8956Z" fill="#E1E1E1" stroke="#E1E1E1"/>
<path d="M37.9155 138.778L19.5088 134.676L37.9155 126.985L44.051 117.242L59.1109 117.242L54.6487 132.625L63.0154 144.931L50.1865 149.033L37.9155 138.778Z" fill="#E1E1E1" stroke="#E1E1E1"/>
<path d="M38.3479 134.097L27.005 132.207L37.9616 127.104L41.3787 121.146L50.5493 120.702L48.336 129.955L53.8339 137.005L46.1562 139.816L38.3479 134.097Z" fill="#E1E1E1" stroke="#E1E1E1"/>
<path d="M40.4709 21.9033L29.1279 23.7929L40.0846 28.8962L43.5016 34.854L52.6723 35.298L50.4589 26.0452L55.9568 18.9948L48.2792 16.1842L40.4709 21.9033Z" fill="#E1E1E1" stroke="#E1E1E1"/>
<path d="M46.3096 138.693L52.2033 136.535L47.5485 130.566L47.251 130.184L47.363 129.716L49.2649 121.765L41.9775 122.118L38.8304 127.605L38.6741 127.878L38.3893 128.01L30.3545 131.753L38.5059 133.111L38.7422 133.15L38.9357 133.292L46.3096 138.693Z" stroke="#E1E1E1" stroke-width="2"/>
<path d="M48.4326 17.3073L54.3264 19.4649L49.6715 25.434L49.374 25.8156L49.486 26.2838L51.3879 34.2347L44.1005 33.8818L40.9534 28.3947L40.7972 28.1224L40.5123 27.9897L32.4775 24.2472L40.629 22.8893L40.8652 22.8499L41.0588 22.7081L48.4326 17.3073Z" stroke="#E1E1E1" stroke-width="2"/>
<path d="M41.0755 49.9202C41.4681 49.6385 41.7009 49.1849 41.7009 48.7016C41.7009 44.6495 39.9456 40.9104 37.2608 37.6107C34.5773 34.3127 30.9 31.3694 26.8663 28.8623C21.1935 25.3365 14.6836 22.593 8.93772 20.9203L29.7675 16.42C30.7898 16.3777 32.7869 15.9721 34.3287 14.5287C34.5652 14.3072 35.3124 13.7317 36.4828 12.877C37.6153 12.05 39.0595 11.022 40.613 9.92912C43.6634 7.7831 47.1161 5.4005 49.4133 3.82815C49.6877 3.72476 50.4231 3.50882 51.3428 3.50882L100.155 3.50882C100.155 3.50882 100.155 3.50882 100.155 3.50882C100.198 3.50882 100.254 3.5074 100.293 3.50639L100.304 3.50612C100.845 3.49241 102.684 3.45482 104.348 4.06904C105.163 4.36967 105.85 4.79677 106.331 5.38129C106.792 5.94195 107.144 6.74405 107.144 7.96918C107.144 9.26153 106.795 10.1365 106.329 10.7581C105.85 11.3971 105.173 11.8674 104.378 12.2087C102.748 12.9086 100.911 12.9519 100.198 12.9646L100.225 14.4643L100.198 12.9646L100.126 12.9659C99.3844 12.9802 98.6816 12.9625 98.0423 12.9463L98.0288 12.9459C97.6555 12.9364 97.2915 12.9271 96.9716 12.9271C96.6958 12.9271 95.0467 12.8866 92.556 12.8252L92.5539 12.8252C88.0415 12.714 80.8908 12.5377 74.7138 12.4306C74.5842 12.4284 74.4548 12.4429 74.3289 12.474C72.4581 12.9349 69.6751 14.0946 67.2221 16.1125C64.7511 18.1452 62.5381 21.1188 62.0563 25.1785C61.5689 29.2856 63.4872 33.7159 65.8039 37.4041C68.1564 41.1491 71.1093 44.4258 73.132 46.3195C73.1594 46.3452 73.1878 46.3698 73.2171 46.3933L110.887 76.694C111.154 76.9083 111.486 77.0252 111.828 77.0252L120.681 77.0252C120.859 77.0737 121.109 77.1719 121.345 77.3313C121.622 77.5174 121.816 77.742 121.916 78.0044C121.816 78.2668 121.622 78.4914 121.345 78.6775C121.109 78.8369 120.859 78.9351 120.681 78.9836L111.828 78.9836C111.486 78.9836 111.154 79.1005 110.887 79.3148L73.217 109.615C73.1878 109.639 73.1594 109.664 73.132 109.689C71.1093 111.583 68.1564 114.86 65.8039 118.605C63.4872 122.293 61.5689 126.723 62.0563 130.83C62.5381 134.89 64.7511 137.864 67.2221 139.896C69.6751 141.914 72.4581 143.074 74.3289 143.535C74.4548 143.566 74.5842 143.58 74.7138 143.578C80.8886 143.471 88.0364 143.295 92.549 143.184L92.5558 143.184C95.0465 143.122 96.6958 143.082 96.9716 143.082C97.2911 143.082 97.6546 143.072 98.0274 143.063L98.0423 143.063C98.6816 143.046 99.3844 143.029 100.126 143.043L100.127 143.043L100.198 143.044C100.198 143.044 100.199 143.044 100.199 143.044C100.911 143.057 102.749 143.1 104.378 143.8C105.173 144.141 105.85 144.612 106.329 145.251C106.795 145.872 107.144 146.747 107.144 148.04C107.144 149.265 106.792 150.067 106.331 150.628C105.85 151.212 105.163 151.639 104.348 151.94C102.684 152.554 100.845 152.516 100.304 152.503L100.294 152.502C100.254 152.501 100.198 152.5 100.155 152.5L51.3428 152.5C50.4231 152.5 49.6876 152.284 49.4133 152.181C47.1161 150.608 43.6634 148.226 40.613 146.08C39.0595 144.987 37.6153 143.959 36.4828 143.132C35.3124 142.277 34.5652 141.702 34.3287 141.48C32.7869 140.037 30.7898 139.631 29.7675 139.589L8.93771 135.088C14.6836 133.416 21.1935 130.672 26.8663 127.146C30.9 124.639 34.5773 121.696 37.2608 118.398C39.9456 115.098 41.7009 111.359 41.7009 107.307C41.7009 106.824 41.4681 106.37 41.0755 106.089C38.5796 104.297 34.663 100.759 31.4149 95.9033C28.1712 91.0537 25.6436 84.9661 25.7701 78.0318C25.7704 78.0135 25.7704 77.9953 25.7701 77.977C25.6436 71.0427 28.1712 64.9551 31.4149 60.1055C34.663 55.2495 38.5796 51.7118 41.0755 49.9202Z" stroke="#E1E1E1" stroke-width="3" stroke-linejoin="round"/>
</svg>
