<svg width="66" height="69" viewBox="0 0 66 69" fill="none" xmlns="http://www.w3.org/2000/svg">
<path d="M39 3.26192L39 6.94186L28 7.15833L28 3.26192C32.4 -0.547895 37.5 1.15833 39 3.26192Z" fill="#9289F5" stroke="black"/>
<path d="M38.5 4.45838C34.5 2.45838 30.1667 3.62504 28.5 4.45838V2.95837C30 1.95837 32.5 1.45837 33.5 1.45837C36 1.45837 37.5 2.45837 38.5 2.95838V4.45838Z" fill="#6760B5"/>
<circle cx="33.2311" cy="36.4472" r="30.2311" fill="#8880DC"/>
<circle cx="33.2308" cy="36.4473" r="24.5453" fill="#9289F5"/>
<path d="M62.9622 36.4472C62.9622 52.8672 49.6511 66.1783 33.2311 66.1783V67.1783C50.2034 67.1783 63.9622 53.4195 63.9622 36.4472H62.9622ZM33.2311 66.1783C16.8111 66.1783 3.5 52.8672 3.5 36.4472H2.5C2.5 53.4195 16.2588 67.1783 33.2311 67.1783V66.1783ZM3.5 36.4472C3.5 20.0271 16.8111 6.71606 33.2311 6.71606V5.71606C16.2588 5.71606 2.5 19.4748 2.5 36.4472H3.5ZM33.2311 6.71606C49.6511 6.71606 62.9622 20.0271 62.9622 36.4472H63.9622C63.9622 19.4748 50.2034 5.71606 33.2311 5.71606V6.71606Z" fill="black"/>
<line x1="5.6518" y1="47.5461" x2="60.5806" y2="24.7938" stroke="black" stroke-width="0.6"/>
<line x1="44.3298" y1="64.0263" x2="21.5775" y2="9.09751" stroke="black" stroke-width="0.6"/>
<line x1="21.5773" y1="63.7967" x2="44.3296" y2="8.86789" stroke="black" stroke-width="0.6"/>
<line x1="5.88141" y1="24.7939" x2="60.8102" y2="47.5461" stroke="black" stroke-width="0.6"/>
<g filter="url(#filter0_d_278_423)">
<circle cx="7.01562" cy="37.4396" r="2.15" fill="#FF2222" stroke="black" stroke-width="0.3"/>
<circle cx="59.4316" cy="37.4397" r="2.15" fill="#FF2222" stroke="black" stroke-width="0.3"/>
<circle cx="33.2236" cy="62.6476" r="2" fill="#FF2222"/>
<ellipse cx="15.3953" cy="18.2084" rx="2" ry="2" transform="rotate(-45 15.3953 18.2084)" fill="#FF2222" stroke="black" stroke-width="0.3"/>
<ellipse cx="51.743" cy="54.9761" rx="2" ry="2" transform="rotate(-45 51.743 54.9761)" fill="#FF2222" stroke="black" stroke-width="0.3"/>
<ellipse cx="51.4712" cy="18.6118" rx="2" ry="2" transform="rotate(45 51.4712 18.6118)" fill="#FF2222" stroke="black" stroke-width="0.3"/>
<ellipse cx="14.9937" cy="54.0897" rx="2" ry="2" transform="rotate(45 14.9937 54.0897)" fill="#FF2222" stroke="black" stroke-width="0.3"/>
</g>
<ellipse cx="33.2309" cy="36.4471" rx="18.1387" ry="18.1387" fill="#ACCDFF" stroke="black" stroke-width="0.6"/>
<path d="M20.9436 37.0567C20.9436 30.5793 25.2877 25.1105 33.2311 25.1105C41.1745 25.1105 45.5186 30.5793 45.5186 37.0567C45.5186 43.534 42.5398 48.6615 33.2311 48.6615C23.9224 48.6615 20.9436 43.534 20.9436 37.0567Z" fill="#A2B864" stroke="black" stroke-width="0.6"/>
<path d="M23.1657 37.0257C23.1657 31.7195 26.7243 27.2395 33.2315 27.2395C39.7387 27.2395 43.2974 31.7195 43.2974 37.0257C43.2974 42.3319 40.8572 46.5323 33.2315 46.5323C25.6059 46.5323 23.1657 42.3319 23.1657 37.0257Z" fill="#B1CA6C"/>
<path fill-rule="evenodd" clip-rule="evenodd" d="M33.1483 38.4219C32.817 38.4219 32.5483 38.6905 32.5483 39.0219V40.5864C31.7529 40.8675 31.1831 41.6261 31.1831 42.5177C31.1831 43.6487 32.1 44.5656 33.231 44.5656C34.362 44.5656 35.2789 43.6487 35.2789 42.5177C35.2789 41.626 34.709 40.8674 33.9136 40.5863V39.0219C33.9136 38.6905 33.645 38.4219 33.3136 38.4219H33.1483Z" fill="black"/>
<path d="M33.2311 33.6021C34.4802 33.6021 35.7382 33.2348 36.6916 32.548C37.6501 31.8575 38.3096 30.8349 38.3096 29.5476C38.3096 28.383 38.2327 27.2476 37.5099 26.4224C36.7811 25.5902 35.4717 25.1518 33.2311 25.1518C30.9905 25.1518 29.6811 25.5902 28.9523 26.4224C28.2295 27.2476 28.1526 28.383 28.1526 29.5476C28.1526 30.8349 28.8121 31.8575 29.7706 32.548C30.724 33.2348 31.982 33.6021 33.2311 33.6021Z" fill="white" stroke="black" stroke-width="0.6"/>
<path d="M34.5963 26.8171C34.5963 27.4997 33.9136 27.841 33.231 27.841C32.5484 27.841 31.8657 27.4997 31.8657 26.8171C31.8657 25.9451 32.0277 25.4518 33.231 25.4518C34.4343 25.4518 34.5963 25.9451 34.5963 26.8171Z" fill="black" stroke="black"/>
<ellipse cx="33.2309" cy="36.4471" rx="18.1387" ry="18.1387" fill="#9DC0F6" fill-opacity="0.3" stroke="black" stroke-width="0.6"/>
<ellipse opacity="0.2" cx="33.2311" cy="36.4471" rx="15.5852" ry="15.5851" fill="#E0ECFF"/>
<path d="M43.7857 24.8908C44.3076 25.4266 44.7947 26.1284 44.9979 26.736C45.0997 27.0403 45.1194 27.2887 45.0698 27.4712C45.0252 27.6354 44.917 27.7777 44.6746 27.8742C44.0173 28.136 43.1516 27.7622 42.3118 26.6612C42.122 26.4123 41.9449 26.1848 41.7819 25.9754C41.3894 25.4711 41.0788 25.0721 40.8694 24.7333C40.5668 24.2436 40.5739 24.0327 40.6762 23.8836C40.9144 23.5364 41.3517 23.4582 41.9773 23.6759C42.5916 23.8896 43.2687 24.3599 43.7857 24.8908Z" fill="#DFECFF" fill-opacity="0.45" stroke="black" stroke-width="0.6"/>
<defs>
<filter id="filter0_d_278_423" x="0.71582" y="11.9083" width="65.0156" height="56.7393" filterUnits="userSpaceOnUse" color-interpolation-filters="sRGB">
<feFlood flood-opacity="0" result="BackgroundImageFix"/>
<feColorMatrix in="SourceAlpha" type="matrix" values="0 0 0 0 0 0 0 0 0 0 0 0 0 0 0 0 0 0 127 0" result="hardAlpha"/>
<feOffset/>
<feGaussianBlur stdDeviation="2"/>
<feComposite in2="hardAlpha" operator="out"/>
<feColorMatrix type="matrix" values="0 0 0 0 1 0 0 0 0 0 0 0 0 0 0 0 0 0 1 0"/>
<feBlend mode="normal" in2="BackgroundImageFix" result="effect1_dropShadow_278_423"/>
<feBlend mode="normal" in="SourceGraphic" in2="effect1_dropShadow_278_423" result="shape"/>
</filter>
</defs>
</svg>
